<?xml version="1.0" encoding="utf-8"?>
<!-- Generator: Adobe Illustrator 27.5.0, SVG Export Plug-In . SVG Version: 6.00 Build 0)  -->
<svg version="1.1" id="Layer_1" xmlns="http://www.w3.org/2000/svg" xmlns:xlink="http://www.w3.org/1999/xlink" x="0px" y="0px"
	 viewBox="0 0 1000 1000" style="enable-background:new 0 0 1000 1000;" xml:space="preserve">
<g>
	<defs>
		<rect id="SVGID_1_" width="1000" height="1000"/>
	</defs>
	<clipPath id="SVGID_00000083055294106134362770000015561477637491252141_">
		<use xlink:href="#SVGID_1_"  style="overflow:visible;"/>
	</clipPath>
	<g style="clip-path:url(#SVGID_00000083055294106134362770000015561477637491252141_);">
		<g id="all_10">
			<g transform="translate(50,50) scale(0.1656) rotate(0)">
				<g id="shape_10_1">
					<path d="M43.376,51.656c-1.104-1.104-1.104-2.208,0-3.312l4.968-4.968c1.104-1.104,2.208-1.104,3.312,0l4.968,4.968
						c1.104,1.104,1.104,2.208,0,3.312l-4.968,4.968c-1.104,1.104-2.208,1.104-3.312,0L43.376,51.656z"/>
				</g>
			</g>
			<g transform="translate(50,150) scale(0.23184) rotate(0)">
				<g id="shape_10_1_1_">
					<path d="M40.727,152.318c-1.546-1.546-1.546-3.091,0-4.637l6.955-6.955c1.546-1.546,3.091-1.546,4.637,0l6.955,6.955
						c1.546,1.545,1.546,3.091,0,4.637l-6.955,6.955c-1.546,1.546-3.091,1.546-4.637,0L40.727,152.318z"/>
				</g>
			</g>
			<g transform="translate(50,250) scale(0.29808) rotate(0)">
				<g id="shape_10_1_2_">
					<path d="M38.077,252.981c-1.987-1.987-1.987-3.975,0-5.962l8.942-8.942c1.987-1.987,3.975-1.987,5.962,0l8.942,8.942
						c1.987,1.987,1.987,3.975,0,5.962l-8.942,8.942c-1.987,1.987-3.975,1.987-5.962,0L38.077,252.981z"/>
				</g>
			</g>
			<g transform="translate(50,350) scale(0.36432) rotate(0)">
				<g id="shape_10_1_3_">
					<path d="M35.427,353.643c-2.429-2.429-2.429-4.858,0-7.286l10.93-10.93c2.429-2.429,4.858-2.429,7.286,0l10.93,10.93
						c2.429,2.429,2.429,4.858,0,7.286l-10.93,10.93c-2.429,2.429-4.858,2.429-7.286,0L35.427,353.643z"/>
				</g>
			</g>
			<g transform="translate(50,450) scale(0.43056) rotate(0)">
				<g id="shape_10_1_4_">
					<path d="M32.778,454.306c-2.871-2.87-2.871-5.741,0-8.611l12.917-12.917c2.871-2.87,5.741-2.87,8.611,0l12.917,12.917
						c2.871,2.87,2.871,5.741,0,8.611l-12.917,12.917c-2.871,2.87-5.741,2.87-8.611,0L32.778,454.306z"/>
				</g>
			</g>
			<g transform="translate(50,550) scale(0.4968) rotate(0)">
				<g id="shape_10_1_5_">
					<path d="M30.128,554.968c-3.312-3.312-3.312-6.624,0-9.936l14.904-14.904c3.312-3.312,6.624-3.312,9.936,0l14.904,14.904
						c3.312,3.311,3.312,6.624,0,9.936l-14.904,14.904c-3.312,3.311-6.624,3.311-9.936,0L30.128,554.968z"/>
				</g>
			</g>
			<g transform="translate(50,650) scale(0.56304) rotate(0)">
				<g id="shape_10_1_6_">
					<path d="M27.479,655.631c-3.754-3.754-3.754-7.508,0-11.262l16.891-16.891c3.753-3.754,7.507-3.754,11.261,0l16.891,16.891
						c3.754,3.754,3.754,7.508,0,11.262L55.63,672.521c-3.753,3.754-7.507,3.754-11.261,0L27.479,655.631z"/>
				</g>
			</g>
			<g transform="translate(50,750) scale(0.62928) rotate(0)">
				<g id="shape_10_1_7_">
					<path d="M24.829,756.293c-4.195-4.195-4.195-8.391,0-12.586l18.878-18.878c4.195-4.195,8.391-4.195,12.586,0l18.878,18.878
						c4.195,4.195,4.195,8.391,0,12.586l-18.878,18.878c-4.195,4.195-8.391,4.195-12.586,0L24.829,756.293z"/>
				</g>
			</g>
			<g transform="translate(50,850) scale(0.69552) rotate(0)">
				<g id="shape_10_1_8_">
					<path d="M22.179,856.955c-4.637-4.637-4.637-9.273,0-13.91l20.866-20.865c4.637-4.638,9.274-4.638,13.91,0l20.866,20.865
						c4.637,4.637,4.637,9.273,0,13.91L56.955,877.82c-4.637,4.638-9.274,4.638-13.91,0L22.179,856.955z"/>
				</g>
			</g>
			<g transform="translate(50,950) scale(0.76176) rotate(0)">
				<g id="shape_10_1_9_">
					<path d="M19.53,957.617c-5.079-5.078-5.079-10.156,0-15.234l22.853-22.854c5.079-5.078,10.157-5.078,15.235,0l22.853,22.854
						c5.079,5.078,5.079,10.156,0,15.234l-22.853,22.854c-5.079,5.078-10.157,5.078-15.235,0L19.53,957.617z"/>
				</g>
			</g>
			<g transform="translate(150,50) scale(0.1512) rotate(0)">
				<g id="shape_10_1_10_">
					<path d="M143.952,51.512c-1.008-1.008-1.008-2.016,0-3.024l4.536-4.536c1.008-1.008,2.016-1.008,3.024,0l4.536,4.536
						c1.008,1.008,1.008,2.016,0,3.024l-4.536,4.536c-1.008,1.008-2.016,1.008-3.024,0L143.952,51.512z"/>
				</g>
			</g>
			<g transform="translate(150,150) scale(0.21168) rotate(0)">
				<g id="shape_10_1_11_">
					<path d="M141.533,152.117c-1.411-1.411-1.411-2.822,0-4.233l6.351-6.351c1.411-1.411,2.822-1.411,4.233,0l6.351,6.351
						c1.411,1.411,1.411,2.822,0,4.233l-6.351,6.351c-1.411,1.411-2.822,1.411-4.233,0L141.533,152.117z"/>
				</g>
			</g>
			<g transform="translate(150,250) scale(0.27216) rotate(0)">
				<g id="shape_10_1_12_">
					<path d="M139.114,252.722c-1.814-1.814-1.814-3.629,0-5.443l8.165-8.165c1.814-1.814,3.629-1.814,5.443,0l8.165,8.165
						c1.814,1.814,1.814,3.629,0,5.443l-8.165,8.165c-1.814,1.814-3.629,1.814-5.443,0L139.114,252.722z"/>
				</g>
			</g>
			<g transform="translate(150,350) scale(0.33264) rotate(0)">
				<g id="shape_10_1_13_">
					<path d="M136.694,353.326c-2.218-2.217-2.218-4.435,0-6.652l9.979-9.98c2.217-2.218,4.435-2.218,6.652,0l9.979,9.98
						c2.218,2.217,2.218,4.435,0,6.652l-9.979,9.98c-2.217,2.218-4.435,2.218-6.652,0L136.694,353.326z"/>
				</g>
			</g>
			<g transform="translate(150,450) scale(0.39312) rotate(0)">
				<g id="shape_10_1_14_">
					<path d="M134.275,453.932c-2.621-2.621-2.621-5.242,0-7.863l11.793-11.793c2.621-2.621,5.242-2.621,7.862,0l11.793,11.793
						c2.621,2.621,2.621,5.242,0,7.863l-11.793,11.793c-2.621,2.621-5.242,2.621-7.862,0L134.275,453.932z"/>
				</g>
			</g>
			<g transform="translate(150,550) scale(0.4536) rotate(0)">
				<g id="shape_10_1_15_">
					<path d="M131.856,554.536c-3.024-3.024-3.024-6.048,0-9.072l13.608-13.608c3.024-3.024,6.048-3.024,9.072,0l13.608,13.608
						c3.024,3.024,3.024,6.048,0,9.072l-13.608,13.607c-3.024,3.024-6.048,3.024-9.072,0L131.856,554.536z"/>
				</g>
			</g>
			<g transform="translate(150,650) scale(0.51408) rotate(0)">
				<g id="shape_10_1_16_">
					<path d="M129.437,655.141c-3.427-3.427-3.427-6.854,0-10.281l15.422-15.423c3.427-3.427,6.854-3.427,10.281,0l15.422,15.423
						c3.427,3.427,3.427,6.854,0,10.281l-15.422,15.423c-3.427,3.427-6.854,3.427-10.281,0L129.437,655.141z"/>
				</g>
			</g>
			<g transform="translate(150,750) scale(0.57456) rotate(0)">
				<g id="shape_10_1_17_">
					<path d="M127.018,755.745c-3.831-3.83-3.831-7.66,0-11.49l17.237-17.237c3.831-3.83,7.661-3.83,11.491,0l17.237,17.237
						c3.831,3.83,3.831,7.66,0,11.49l-17.237,17.237c-3.831,3.83-7.661,3.83-11.491,0L127.018,755.745z"/>
				</g>
			</g>
			<g transform="translate(150,850) scale(0.63504) rotate(0)">
				<g id="shape_10_1_18_">
					<path d="M124.599,856.351c-4.234-4.233-4.234-8.468,0-12.701l19.051-19.051c4.234-4.233,8.467-4.233,12.701,0l19.051,19.051
						c4.234,4.233,4.234,8.468,0,12.701l-19.051,19.051c-4.234,4.233-8.467,4.233-12.701,0L124.599,856.351z"/>
				</g>
			</g>
			<g transform="translate(150,950) scale(0.69552) rotate(0)">
				<g id="shape_10_1_19_">
					<path d="M122.179,956.955c-4.637-4.637-4.637-9.273,0-13.91l20.866-20.865c4.637-4.638,9.273-4.638,13.91,0l20.866,20.865
						c4.637,4.637,4.637,9.273,0,13.91l-20.866,20.865c-4.637,4.638-9.273,4.638-13.91,0L122.179,956.955z"/>
				</g>
			</g>
			<g transform="translate(250,50) scale(0.1368) rotate(0)">
				<g id="shape_10_1_20_">
					<path d="M244.528,51.368c-0.912-0.912-0.912-1.824,0-2.736l4.104-4.104c0.912-0.912,1.824-0.912,2.736,0l4.104,4.104
						c0.912,0.912,0.912,1.824,0,2.736l-4.104,4.104c-0.912,0.912-1.824,0.912-2.736,0L244.528,51.368z"/>
				</g>
			</g>
			<g transform="translate(250,150) scale(0.19152) rotate(0)">
				<g id="shape_10_1_21_">
					<path d="M242.339,151.915c-1.277-1.276-1.277-2.554,0-3.83l5.746-5.746c1.277-1.277,2.553-1.277,3.83,0l5.746,5.746
						c1.277,1.276,1.277,2.554,0,3.83l-5.746,5.746c-1.277,1.277-2.553,1.277-3.83,0L242.339,151.915z"/>
				</g>
			</g>
			<g transform="translate(250,250) scale(0.24624) rotate(0)">
				<g id="shape_10_1_22_">
					<path d="M240.15,252.462c-1.642-1.642-1.642-3.283,0-4.925l7.387-7.387c1.642-1.642,3.283-1.642,4.925,0l7.387,7.387
						c1.642,1.642,1.642,3.283,0,4.925l-7.387,7.387c-1.642,1.642-3.283,1.642-4.925,0L240.15,252.462z"/>
				</g>
			</g>
			<g transform="translate(250,350) scale(0.30096) rotate(0)">
				<g id="shape_10_1_23_">
					<path d="M237.961,353.01c-2.006-2.006-2.006-4.013,0-6.02l9.029-9.029c2.006-2.006,4.013-2.006,6.02,0l9.029,9.029
						c2.006,2.006,2.006,4.013,0,6.02l-9.029,9.029c-2.006,2.006-4.013,2.006-6.02,0L237.961,353.01z"/>
				</g>
			</g>
			<g transform="translate(250,450) scale(0.35568) rotate(0)">
				<g id="shape_10_1_24_">
					<path d="M235.773,453.557c-2.372-2.371-2.372-4.742,0-7.113l10.671-10.671c2.371-2.371,4.742-2.371,7.113,0l10.671,10.671
						c2.371,2.371,2.371,4.742,0,7.113l-10.671,10.671c-2.371,2.371-4.742,2.371-7.113,0L235.773,453.557z"/>
				</g>
			</g>
			<g transform="translate(250,550) scale(0.4104) rotate(0)">
				<g id="shape_10_1_25_">
					<path d="M233.584,554.104c-2.736-2.735-2.736-5.472,0-8.207l12.312-12.313c2.736-2.736,5.472-2.736,8.208,0l12.312,12.313
						c2.736,2.735,2.736,5.472,0,8.207l-12.312,12.313c-2.736,2.736-5.472,2.736-8.208,0L233.584,554.104z"/>
				</g>
			</g>
			<g transform="translate(250,650) scale(0.46512) rotate(0)">
				<g id="shape_10_1_26_">
					<path d="M231.395,654.651c-3.101-3.101-3.101-6.202,0-9.303l13.954-13.953c3.101-3.102,6.202-3.102,9.303,0l13.954,13.953
						c3.101,3.101,3.101,6.202,0,9.303l-13.954,13.953c-3.101,3.102-6.202,3.102-9.303,0L231.395,654.651z"/>
				</g>
			</g>
			<g transform="translate(250,750) scale(0.51984) rotate(0)">
				<g id="shape_10_1_27_">
					<path d="M229.206,755.198c-3.466-3.466-3.466-6.931,0-10.396l15.595-15.596c3.465-3.465,6.931-3.465,10.396,0l15.595,15.596
						c3.466,3.466,3.466,6.931,0,10.396l-15.595,15.596c-3.465,3.465-6.931,3.465-10.396,0L229.206,755.198z"/>
				</g>
			</g>
			<g transform="translate(250,850) scale(0.57456) rotate(0)">
				<g id="shape_10_1_28_">
					<path d="M227.018,855.745c-3.831-3.83-3.831-7.66,0-11.49l17.237-17.237c3.831-3.83,7.661-3.83,11.491,0l17.237,17.237
						c3.831,3.83,3.831,7.66,0,11.49l-17.237,17.237c-3.831,3.83-7.661,3.83-11.491,0L227.018,855.745z"/>
				</g>
			</g>
			<g transform="translate(250,950) scale(0.62928) rotate(0)">
				<g id="shape_10_1_29_">
					<path d="M224.829,956.293c-4.195-4.195-4.195-8.391,0-12.586l18.878-18.878c4.195-4.195,8.391-4.195,12.586,0l18.878,18.878
						c4.195,4.195,4.195,8.391,0,12.586l-18.878,18.878c-4.195,4.195-8.391,4.195-12.586,0L224.829,956.293z"/>
				</g>
			</g>
			<g transform="translate(350,50) scale(0.1224) rotate(0)">
				<g id="shape_10_1_30_">
					<path d="M345.103,51.224c-0.815-0.816-0.815-1.632,0-2.448l3.673-3.672c0.815-0.816,1.632-0.816,2.447,0l3.673,3.672
						c0.815,0.816,0.815,1.632,0,2.448l-3.673,3.672c-0.815,0.816-1.632,0.816-2.447,0L345.103,51.224z"/>
				</g>
			</g>
			<g transform="translate(350,150) scale(0.17136) rotate(0)">
				<g id="shape_10_1_31_">
					<path d="M343.146,151.714c-1.143-1.143-1.143-2.285,0-3.428l5.141-5.141c1.143-1.143,2.285-1.143,3.428,0l5.141,5.141
						c1.143,1.143,1.143,2.285,0,3.428l-5.141,5.141c-1.143,1.143-2.285,1.143-3.428,0L343.146,151.714z"/>
				</g>
			</g>
			<g transform="translate(350,250) scale(0.22032) rotate(0)">
				<g id="shape_10_1_32_">
					<path d="M341.188,252.203c-1.469-1.469-1.469-2.938,0-4.406l6.609-6.61c1.469-1.469,2.938-1.469,4.406,0l6.609,6.61
						c1.469,1.469,1.469,2.938,0,4.406l-6.609,6.61c-1.469,1.469-2.938,1.469-4.406,0L341.188,252.203z"/>
				</g>
			</g>
			<g transform="translate(350,350) scale(0.26928) rotate(0)">
				<g id="shape_10_1_33_">
					<path d="M339.228,352.693c-1.795-1.795-1.795-3.59,0-5.386l8.079-8.078c1.795-1.795,3.59-1.795,5.385,0l8.079,8.078
						c1.795,1.795,1.795,3.59,0,5.386l-8.079,8.078c-1.795,1.795-3.59,1.795-5.385,0L339.228,352.693z"/>
				</g>
			</g>
			<g transform="translate(350,450) scale(0.31824) rotate(0)">
				<g id="shape_10_1_34_">
					<path d="M337.271,453.183c-2.122-2.122-2.122-4.243,0-6.365l9.547-9.547c2.122-2.122,4.243-2.122,6.365,0l9.547,9.547
						c2.122,2.122,2.122,4.243,0,6.365l-9.547,9.547c-2.122,2.122-4.243,2.122-6.365,0L337.271,453.183z"/>
				</g>
			</g>
			<g transform="translate(350,550) scale(0.3672) rotate(0)">
				<g id="shape_10_1_35_">
					<path d="M335.313,553.672c-2.448-2.448-2.448-4.896,0-7.344l11.016-11.016c2.448-2.448,4.896-2.448,7.344,0l11.016,11.016
						c2.448,2.448,2.448,4.896,0,7.344l-11.016,11.017c-2.448,2.447-4.896,2.447-7.344,0L335.313,553.672z"/>
				</g>
			</g>
			<g transform="translate(350,650) scale(0.41616) rotate(0)">
				<g id="shape_10_1_36_">
					<path d="M333.353,654.161c-2.774-2.774-2.774-5.548,0-8.322l12.485-12.485c2.774-2.774,5.548-2.774,8.322,0l12.485,12.485
						c2.774,2.774,2.774,5.548,0,8.322l-12.485,12.485c-2.774,2.774-5.548,2.774-8.322,0L333.353,654.161z"/>
				</g>
			</g>
			<g transform="translate(350,750) scale(0.46512) rotate(0)">
				<g id="shape_10_1_37_">
					<path d="M331.396,754.651c-3.102-3.101-3.102-6.202,0-9.303l13.953-13.953c3.101-3.102,6.202-3.102,9.303,0l13.953,13.953
						c3.102,3.101,3.102,6.202,0,9.303l-13.953,13.953c-3.101,3.102-6.202,3.102-9.303,0L331.396,754.651z"/>
				</g>
			</g>
			<g transform="translate(350,850) scale(0.51408) rotate(0)">
				<g id="shape_10_1_38_">
					<path d="M329.436,855.141c-3.427-3.427-3.427-6.855,0-10.281l15.423-15.423c3.427-3.427,6.854-3.427,10.281,0l15.423,15.423
						c3.427,3.427,3.427,6.855,0,10.281l-15.423,15.423c-3.427,3.427-6.854,3.427-10.281,0L329.436,855.141z"/>
				</g>
			</g>
			<g transform="translate(350,950) scale(0.56304) rotate(0)">
				<g id="shape_10_1_39_">
					<path d="M327.478,955.631c-3.754-3.754-3.754-7.508,0-11.262l16.891-16.891c3.754-3.754,7.508-3.754,11.262,0l16.891,16.891
						c3.754,3.754,3.754,7.508,0,11.262l-16.891,16.891c-3.754,3.754-7.508,3.754-11.262,0L327.478,955.631z"/>
				</g>
			</g>
			<g transform="translate(450,50) scale(0.108) rotate(0)">
				<g id="shape_10_1_40_">
					<path d="M445.68,51.08c-0.72-0.72-0.72-1.44,0-2.16l3.24-3.24c0.72-0.72,1.44-0.72,2.16,0l3.24,3.24
						c0.72,0.72,0.72,1.44,0,2.16l-3.24,3.24c-0.72,0.72-1.441,0.72-2.16,0L445.68,51.08z"/>
				</g>
			</g>
			<g transform="translate(450,150) scale(0.1512) rotate(0)">
				<g id="shape_10_1_41_">
					<path d="M443.952,151.512c-1.008-1.008-1.008-2.016,0-3.024l4.536-4.536c1.008-1.008,2.016-1.008,3.023,0l4.536,4.536
						c1.008,1.008,1.008,2.016,0,3.024l-4.536,4.536c-1.008,1.008-2.016,1.008-3.023,0L443.952,151.512z"/>
				</g>
			</g>
			<g transform="translate(450,250) scale(0.1944) rotate(0)">
				<g id="shape_10_1_42_">
					<path d="M442.224,251.944c-1.296-1.296-1.296-2.592,0-3.888l5.832-5.832c1.296-1.296,2.593-1.296,3.889,0l5.832,5.832
						c1.296,1.296,1.296,2.592,0,3.888l-5.832,5.832c-1.296,1.296-2.593,1.296-3.889,0L442.224,251.944z"/>
				</g>
			</g>
			<g transform="translate(450,350) scale(0.2376) rotate(0)">
				<g id="shape_10_1_43_">
					<path d="M440.496,352.376c-1.584-1.584-1.584-3.168,0-4.752l7.128-7.128c1.584-1.584,3.168-1.584,4.752,0l7.128,7.128
						c1.584,1.584,1.584,3.168,0,4.752l-7.128,7.128c-1.584,1.584-3.168,1.584-4.752,0L440.496,352.376z"/>
				</g>
			</g>
			<g transform="translate(450,450) scale(0.2808) rotate(0)">
				<g id="shape_10_1_44_">
					<path d="M438.768,452.808c-1.871-1.872-1.871-3.743,0-5.615l8.425-8.425c1.872-1.871,3.743-1.871,5.615,0l8.425,8.425
						c1.871,1.872,1.871,3.743,0,5.615l-8.425,8.425c-1.872,1.871-3.743,1.871-5.615,0L438.768,452.808z"/>
				</g>
			</g>
			<g transform="translate(450,550) scale(0.324) rotate(0)">
				<g id="shape_10_1_45_">
					<path d="M437.04,553.24c-2.16-2.16-2.16-4.32,0-6.48l9.72-9.72c2.16-2.16,4.32-2.16,6.48,0l9.72,9.72
						c2.16,2.16,2.16,4.32,0,6.48l-9.72,9.72c-2.16,2.16-4.32,2.16-6.48,0L437.04,553.24z"/>
				</g>
			</g>
			<g transform="translate(450,650) scale(0.3672) rotate(0)">
				<g id="shape_10_1_46_">
					<path d="M435.313,653.672c-2.448-2.448-2.448-4.896,0-7.344l11.016-11.017c2.448-2.447,4.896-2.447,7.344,0l11.016,11.017
						c2.448,2.448,2.448,4.896,0,7.344l-11.016,11.017c-2.448,2.447-4.896,2.447-7.344,0L435.313,653.672z"/>
				</g>
			</g>
			<g transform="translate(450,750) scale(0.4104) rotate(0)">
				<g id="shape_10_1_47_">
					<path d="M433.584,754.104c-2.736-2.735-2.736-5.472,0-8.207l12.312-12.313c2.735-2.736,5.472-2.736,8.207,0l12.313,12.313
						c2.736,2.735,2.736,5.472,0,8.207l-12.313,12.313c-2.735,2.736-5.472,2.736-8.207,0L433.584,754.104z"/>
				</g>
			</g>
			<g transform="translate(450,850) scale(0.4536) rotate(0)">
				<g id="shape_10_1_48_">
					<path d="M431.856,854.536c-3.024-3.024-3.024-6.048,0-9.072l13.608-13.608c3.024-3.024,6.048-3.024,9.072,0l13.607,13.608
						c3.024,3.024,3.024,6.048,0,9.072l-13.607,13.608c-3.024,3.024-6.048,3.024-9.072,0L431.856,854.536z"/>
				</g>
			</g>
			<g transform="translate(450,950) scale(0.4968) rotate(0)">
				<g id="shape_10_1_49_">
					<path d="M430.128,954.968c-3.311-3.311-3.311-6.624,0-9.936l14.904-14.904c3.312-3.312,6.624-3.312,9.936,0l14.904,14.904
						c3.311,3.312,3.311,6.624,0,9.936l-14.904,14.904c-3.312,3.312-6.624,3.312-9.936,0L430.128,954.968z"/>
				</g>
			</g>
			<g transform="translate(550,50) scale(0.0936) rotate(0)">
				<g id="shape_10_1_50_">
					<path d="M546.256,50.936c-0.624-0.624-0.624-1.248,0-1.872l2.809-2.808c0.623-0.624,1.248-0.624,1.871,0l2.809,2.808
						c0.624,0.624,0.624,1.248,0,1.872l-2.809,2.808c-0.623,0.624-1.248,0.624-1.871,0L546.256,50.936z"/>
				</g>
			</g>
			<g transform="translate(550,150) scale(0.13104) rotate(0)">
				<g id="shape_10_1_51_">
					<path d="M544.759,151.311c-0.874-0.874-0.874-1.748,0-2.621l3.931-3.931c0.874-0.874,1.747-0.874,2.621,0l3.931,3.931
						c0.874,0.873,0.874,1.747,0,2.621l-3.931,3.931c-0.874,0.874-1.747,0.874-2.621,0L544.759,151.311z"/>
				</g>
			</g>
			<g transform="translate(550,250) scale(0.16848) rotate(0)">
				<g id="shape_10_1_52_">
					<path d="M543.261,251.685c-1.123-1.123-1.123-2.246,0-3.369l5.055-5.055c1.123-1.123,2.246-1.123,3.369,0l5.055,5.055
						c1.123,1.123,1.123,2.246,0,3.369l-5.055,5.055c-1.123,1.123-2.246,1.123-3.369,0L543.261,251.685z"/>
				</g>
			</g>
			<g transform="translate(550,350) scale(0.20592) rotate(0)">
				<g id="shape_10_1_53_">
					<path d="M541.764,352.059c-1.373-1.373-1.373-2.746,0-4.118l6.177-6.178c1.373-1.373,2.746-1.373,4.119,0l6.177,6.178
						c1.373,1.373,1.373,2.746,0,4.118l-6.177,6.178c-1.373,1.373-2.746,1.373-4.119,0L541.764,352.059z"/>
				</g>
			</g>
			<g transform="translate(550,450) scale(0.24336) rotate(0)">
				<g id="shape_10_1_54_">
					<path d="M540.266,452.434c-1.622-1.622-1.622-3.245,0-4.867l7.301-7.301c1.622-1.622,3.245-1.622,4.867,0l7.301,7.301
						c1.622,1.622,1.622,3.245,0,4.867l-7.301,7.301c-1.622,1.622-3.245,1.622-4.867,0L540.266,452.434z"/>
				</g>
			</g>
			<g transform="translate(550,550) scale(0.2808) rotate(0)">
				<g id="shape_10_1_55_">
					<path d="M538.768,552.808c-1.871-1.872-1.871-3.743,0-5.615l8.425-8.425c1.872-1.871,3.743-1.871,5.615,0l8.425,8.425
						c1.871,1.872,1.871,3.743,0,5.615l-8.425,8.425c-1.872,1.871-3.743,1.871-5.615,0L538.768,552.808z"/>
				</g>
			</g>
			<g transform="translate(550,650) scale(0.31824) rotate(0)">
				<g id="shape_10_1_56_">
					<path d="M537.271,653.183c-2.122-2.122-2.122-4.243,0-6.365l9.547-9.547c2.122-2.122,4.243-2.122,6.365,0l9.547,9.547
						c2.122,2.122,2.122,4.243,0,6.365l-9.547,9.547c-2.122,2.122-4.243,2.122-6.365,0L537.271,653.183z"/>
				</g>
			</g>
			<g transform="translate(550,750) scale(0.35568) rotate(0)">
				<g id="shape_10_1_57_">
					<path d="M535.772,753.557c-2.371-2.371-2.371-4.742,0-7.113l10.671-10.671c2.371-2.371,4.742-2.371,7.113,0l10.671,10.671
						c2.371,2.371,2.371,4.742,0,7.113l-10.671,10.671c-2.371,2.371-4.742,2.371-7.113,0L535.772,753.557z"/>
				</g>
			</g>
			<g transform="translate(550,850) scale(0.39312) rotate(0)">
				<g id="shape_10_1_58_">
					<path d="M534.275,853.932c-2.621-2.621-2.621-5.242,0-7.863l11.793-11.793c2.621-2.621,5.242-2.621,7.863,0l11.793,11.793
						c2.621,2.621,2.621,5.242,0,7.863l-11.793,11.793c-2.621,2.621-5.242,2.621-7.863,0L534.275,853.932z"/>
				</g>
			</g>
			<g transform="translate(550,950) scale(0.43056) rotate(0)">
				<g id="shape_10_1_59_">
					<path d="M532.777,954.306c-2.87-2.87-2.87-5.741,0-8.611l12.917-12.917c2.87-2.87,5.741-2.87,8.611,0l12.917,12.917
						c2.87,2.87,2.87,5.741,0,8.611l-12.917,12.917c-2.87,2.87-5.741,2.87-8.611,0L532.777,954.306z"/>
				</g>
			</g>
			<g transform="translate(650,50) scale(0.0792) rotate(0)">
				<g id="shape_10_1_60_">
					<path d="M646.832,50.792c-0.528-0.528-0.528-1.056,0-1.584l2.376-2.376c0.528-0.528,1.056-0.528,1.584,0l2.376,2.376
						c0.528,0.528,0.528,1.056,0,1.584l-2.376,2.376c-0.528,0.528-1.056,0.528-1.584,0L646.832,50.792z"/>
				</g>
			</g>
			<g transform="translate(650,150) scale(0.11088) rotate(0)">
				<g id="shape_10_1_61_">
					<path d="M645.565,151.109c-0.739-0.739-0.739-1.479,0-2.218l3.327-3.326c0.739-0.739,1.477-0.739,2.217,0l3.327,3.326
						c0.739,0.739,0.739,1.479,0,2.218l-3.327,3.326c-0.739,0.739-1.478,0.739-2.217,0L645.565,151.109z"/>
				</g>
			</g>
			<g transform="translate(650,250) scale(0.14256) rotate(0)">
				<g id="shape_10_1_62_">
					<path d="M644.298,251.426c-0.95-0.951-0.95-1.901,0-2.852l4.276-4.276c0.95-0.951,1.901-0.951,2.852,0l4.276,4.276
						c0.95,0.951,0.95,1.901,0,2.852l-4.276,4.276c-0.95,0.951-1.901,0.951-2.852,0L644.298,251.426z"/>
				</g>
			</g>
			<g transform="translate(650,350) scale(0.17424) rotate(0)">
				<g id="shape_10_1_63_">
					<path d="M643.03,351.742c-1.161-1.161-1.161-2.323,0-3.484l5.228-5.228c1.161-1.162,2.323-1.162,3.484,0l5.227,5.228
						c1.161,1.161,1.161,2.323,0,3.484l-5.227,5.228c-1.161,1.162-2.323,1.162-3.484,0L643.03,351.742z"/>
				</g>
			</g>
			<g transform="translate(650,450) scale(0.20592) rotate(0)">
				<g id="shape_10_1_64_">
					<path d="M641.764,452.06c-1.373-1.373-1.373-2.746,0-4.119l6.177-6.177c1.373-1.373,2.746-1.373,4.119,0l6.177,6.177
						c1.373,1.373,1.373,2.746,0,4.119l-6.177,6.177c-1.373,1.373-2.746,1.373-4.119,0L641.764,452.06z"/>
				</g>
			</g>
			<g transform="translate(650,550) scale(0.2376) rotate(0)">
				<g id="shape_10_1_65_">
					<path d="M640.496,552.376c-1.584-1.584-1.584-3.168,0-4.752l7.128-7.128c1.584-1.584,3.168-1.584,4.752,0l7.128,7.128
						c1.584,1.584,1.584,3.168,0,4.752l-7.128,7.128c-1.584,1.584-3.168,1.584-4.752,0L640.496,552.376z"/>
				</g>
			</g>
			<g transform="translate(650,650) scale(0.26928) rotate(0)">
				<g id="shape_10_1_66_">
					<path d="M639.229,652.692c-1.795-1.795-1.795-3.59,0-5.385l8.079-8.079c1.795-1.795,3.59-1.795,5.385,0l8.079,8.079
						c1.795,1.795,1.795,3.59,0,5.385l-8.079,8.079c-1.795,1.795-3.59,1.795-5.385,0L639.229,652.692z"/>
				</g>
			</g>
			<g transform="translate(650,750) scale(0.30096) rotate(0)">
				<g id="shape_10_1_67_">
					<path d="M637.962,753.01c-2.007-2.007-2.007-4.013,0-6.02l9.028-9.028c2.007-2.007,4.013-2.007,6.02,0l9.028,9.028
						c2.007,2.007,2.007,4.013,0,6.02l-9.028,9.028c-2.007,2.007-4.013,2.007-6.02,0L637.962,753.01z"/>
				</g>
			</g>
			<g transform="translate(650,850) scale(0.33264) rotate(0)">
				<g id="shape_10_1_68_">
					<path d="M636.694,853.326c-2.218-2.218-2.218-4.435,0-6.652l9.979-9.98c2.218-2.218,4.435-2.218,6.652,0l9.979,9.98
						c2.218,2.218,2.218,4.435,0,6.652l-9.979,9.98c-2.218,2.218-4.435,2.218-6.652,0L636.694,853.326z"/>
				</g>
			</g>
			<g transform="translate(650,950) scale(0.36432) rotate(0)">
				<g id="shape_10_1_69_">
					<path d="M635.427,953.644c-2.429-2.429-2.429-4.858,0-7.287l10.93-10.93c2.429-2.429,4.858-2.429,7.287,0l10.93,10.93
						c2.429,2.429,2.429,4.858,0,7.287l-10.93,10.93c-2.429,2.429-4.858,2.429-7.287,0L635.427,953.644z"/>
				</g>
			</g>
			<g transform="translate(750,50) scale(0.0648) rotate(0)">
				<g id="shape_10_1_70_">
					<path d="M747.408,50.648c-0.433-0.432-0.433-0.864,0-1.296l1.943-1.944c0.433-0.432,0.864-0.432,1.297,0l1.943,1.944
						c0.433,0.432,0.433,0.864,0,1.296l-1.943,1.944c-0.433,0.432-0.864,0.432-1.297,0L747.408,50.648z"/>
				</g>
			</g>
			<g transform="translate(750,150) scale(0.09072) rotate(0)">
				<g id="shape_10_1_71_">
					<path d="M746.371,150.907c-0.604-0.605-0.604-1.209,0-1.814l2.722-2.722c0.604-0.605,1.21-0.605,1.814,0l2.722,2.722
						c0.604,0.605,0.604,1.209,0,1.814l-2.722,2.722c-0.604,0.604-1.21,0.604-1.814,0L746.371,150.907z"/>
				</g>
			</g>
			<g transform="translate(750,250) scale(0.11664) rotate(0)">
				<g id="shape_10_1_72_">
					<path d="M745.334,251.167c-0.777-0.778-0.777-1.555,0-2.333l3.5-3.499c0.777-0.778,1.555-0.778,2.332,0l3.5,3.499
						c0.777,0.778,0.777,1.555,0,2.333l-3.5,3.499c-0.777,0.778-1.555,0.778-2.332,0L745.334,251.167z"/>
				</g>
			</g>
			<g transform="translate(750,350) scale(0.14256) rotate(0)">
				<g id="shape_10_1_73_">
					<path d="M744.298,351.426c-0.95-0.951-0.95-1.901,0-2.852l4.276-4.276c0.95-0.951,1.901-0.951,2.852,0l4.276,4.276
						c0.95,0.951,0.95,1.901,0,2.852l-4.276,4.276c-0.95,0.951-1.901,0.951-2.852,0L744.298,351.426z"/>
				</g>
			</g>
			<g transform="translate(750,450) scale(0.16848) rotate(0)">
				<g id="shape_10_1_74_">
					<path d="M743.261,451.685c-1.123-1.123-1.123-2.246,0-3.369l5.055-5.055c1.123-1.123,2.246-1.123,3.369,0l5.055,5.055
						c1.123,1.123,1.123,2.246,0,3.369l-5.055,5.055c-1.123,1.123-2.246,1.123-3.369,0L743.261,451.685z"/>
				</g>
			</g>
			<g transform="translate(750,550) scale(0.1944) rotate(0)">
				<g id="shape_10_1_75_">
					<path d="M742.224,551.944c-1.296-1.296-1.296-2.593,0-3.889l5.832-5.832c1.296-1.296,2.593-1.296,3.889,0l5.832,5.832
						c1.296,1.296,1.296,2.593,0,3.889l-5.832,5.832c-1.296,1.296-2.593,1.296-3.889,0L742.224,551.944z"/>
				</g>
			</g>
			<g transform="translate(750,650) scale(0.22032) rotate(0)">
				<g id="shape_10_1_76_">
					<path d="M741.188,652.203c-1.469-1.469-1.469-2.938,0-4.406l6.609-6.609c1.469-1.469,2.938-1.469,4.406,0l6.609,6.609
						c1.469,1.469,1.469,2.938,0,4.406l-6.609,6.609c-1.469,1.469-2.938,1.469-4.406,0L741.188,652.203z"/>
				</g>
			</g>
			<g transform="translate(750,750) scale(0.24624) rotate(0)">
				<g id="shape_10_1_77_">
					<path d="M740.15,752.462c-1.642-1.642-1.642-3.282,0-4.924l7.387-7.388c1.643-1.642,3.283-1.642,4.926,0l7.387,7.388
						c1.642,1.642,1.642,3.282,0,4.924l-7.387,7.388c-1.643,1.642-3.283,1.642-4.926,0L740.15,752.462z"/>
				</g>
			</g>
			<g transform="translate(750,850) scale(0.27216) rotate(0)">
				<g id="shape_10_1_78_">
					<path d="M739.113,852.722c-1.815-1.814-1.815-3.629,0-5.443l8.165-8.165c1.815-1.814,3.629-1.814,5.443,0l8.165,8.165
						c1.815,1.814,1.815,3.629,0,5.443l-8.165,8.165c-1.815,1.814-3.629,1.814-5.443,0L739.113,852.722z"/>
				</g>
			</g>
			<g transform="translate(750,950) scale(0.29808) rotate(0)">
				<g id="shape_10_1_79_">
					<path d="M738.077,952.981c-1.987-1.987-1.987-3.974,0-5.961l8.942-8.942c1.987-1.987,3.974-1.987,5.961,0l8.942,8.942
						c1.987,1.987,1.987,3.974,0,5.961l-8.942,8.942c-1.987,1.987-3.974,1.987-5.961,0L738.077,952.981z"/>
				</g>
			</g>
			<g transform="translate(850,50) scale(0.0504) rotate(0)">
				<g id="shape_10_1_80_">
					<path d="M847.984,50.504c-0.336-0.336-0.336-0.672,0-1.008l1.512-1.512c0.336-0.336,0.672-0.336,1.008,0l1.512,1.512
						c0.336,0.336,0.336,0.672,0,1.008l-1.512,1.512c-0.336,0.336-0.672,0.336-1.008,0L847.984,50.504z"/>
				</g>
			</g>
			<g transform="translate(850,150) scale(0.07056) rotate(0)">
				<g id="shape_10_1_81_">
					<path d="M847.178,150.706c-0.471-0.47-0.471-0.941,0-1.411l2.116-2.117c0.471-0.471,0.942-0.471,1.412,0l2.116,2.117
						c0.471,0.47,0.471,0.941,0,1.411l-2.116,2.117c-0.471,0.471-0.941,0.471-1.412,0L847.178,150.706z"/>
				</g>
			</g>
			<g transform="translate(850,250) scale(0.09072) rotate(0)">
				<g id="shape_10_1_82_">
					<path d="M846.371,250.907c-0.604-0.605-0.604-1.209,0-1.814l2.722-2.722c0.604-0.604,1.21-0.604,1.814,0l2.722,2.722
						c0.604,0.605,0.604,1.209,0,1.814l-2.722,2.722c-0.604,0.604-1.21,0.604-1.814,0L846.371,250.907z"/>
				</g>
			</g>
			<g transform="translate(850,350) scale(0.11088) rotate(0)">
				<g id="shape_10_1_83_">
					<path d="M845.564,351.109c-0.739-0.739-0.739-1.479,0-2.218l3.327-3.326c0.739-0.739,1.477-0.739,2.217,0l3.327,3.326
						c0.739,0.739,0.739,1.479,0,2.218l-3.327,3.326c-0.739,0.739-1.478,0.739-2.217,0L845.564,351.109z"/>
				</g>
			</g>
			<g transform="translate(850,450) scale(0.13104) rotate(0)">
				<g id="shape_10_1_84_">
					<path d="M844.759,451.311c-0.874-0.874-0.874-1.747,0-2.621l3.931-3.931c0.874-0.874,1.747-0.874,2.621,0l3.931,3.931
						c0.874,0.874,0.874,1.747,0,2.621l-3.931,3.931c-0.874,0.874-1.747,0.874-2.621,0L844.759,451.311z"/>
				</g>
			</g>
			<g transform="translate(850,550) scale(0.1512) rotate(0)">
				<g id="shape_10_1_85_">
					<path d="M843.952,551.512c-1.008-1.008-1.008-2.016,0-3.023l4.536-4.536c1.008-1.008,2.016-1.008,3.023,0l4.536,4.536
						c1.008,1.008,1.008,2.016,0,3.023l-4.536,4.536c-1.008,1.008-2.016,1.008-3.023,0L843.952,551.512z"/>
				</g>
			</g>
			<g transform="translate(850,650) scale(0.17136) rotate(0)">
				<g id="shape_10_1_86_">
					<path d="M843.146,651.714c-1.143-1.143-1.143-2.285,0-3.428l5.141-5.141c1.143-1.143,2.285-1.143,3.428,0l5.141,5.141
						c1.143,1.143,1.143,2.285,0,3.428l-5.141,5.141c-1.143,1.143-2.285,1.143-3.428,0L843.146,651.714z"/>
				</g>
			</g>
			<g transform="translate(850,750) scale(0.19152) rotate(0)">
				<g id="shape_10_1_87_">
					<path d="M842.339,751.915c-1.276-1.276-1.276-2.554,0-3.83l5.746-5.746c1.276-1.276,2.554-1.276,3.83,0l5.746,5.746
						c1.276,1.276,1.276,2.554,0,3.83l-5.746,5.746c-1.276,1.276-2.554,1.276-3.83,0L842.339,751.915z"/>
				</g>
			</g>
			<g transform="translate(850,850) scale(0.21168) rotate(0)">
				<g id="shape_10_1_88_">
					<path d="M841.533,852.117c-1.412-1.411-1.412-2.823,0-4.234l6.35-6.35c1.411-1.411,2.823-1.411,4.234,0l6.35,6.35
						c1.412,1.411,1.412,2.823,0,4.234l-6.35,6.35c-1.411,1.411-2.823,1.411-4.234,0L841.533,852.117z"/>
				</g>
			</g>
			<g transform="translate(850,950) scale(0.23184) rotate(0)">
				<g id="shape_10_1_89_">
					<path d="M840.727,952.318c-1.546-1.546-1.546-3.091,0-4.637l6.955-6.955c1.546-1.546,3.091-1.546,4.637,0l6.955,6.955
						c1.546,1.546,1.546,3.091,0,4.637l-6.955,6.955c-1.546,1.546-3.091,1.546-4.637,0L840.727,952.318z"/>
				</g>
			</g>
			<g transform="translate(950,50) scale(0.036) rotate(0)">
				<g id="shape_10_1_90_">
					<path d="M948.56,50.36c-0.239-0.24-0.239-0.48,0-0.72l1.08-1.08c0.24-0.24,0.48-0.24,0.721,0l1.08,1.08
						c0.239,0.24,0.239,0.48,0,0.72l-1.08,1.08c-0.24,0.24-0.48,0.24-0.721,0L948.56,50.36z"/>
				</g>
			</g>
			<g transform="translate(950,150) scale(0.0504) rotate(0)">
				<g id="shape_10_1_91_">
					<path d="M947.984,150.504c-0.336-0.336-0.336-0.672,0-1.008l1.512-1.512c0.336-0.336,0.672-0.336,1.008,0l1.512,1.512
						c0.336,0.336,0.336,0.672,0,1.008l-1.512,1.512c-0.336,0.336-0.672,0.336-1.008,0L947.984,150.504z"/>
				</g>
			</g>
			<g transform="translate(950,250) scale(0.0648) rotate(0)">
				<g id="shape_10_1_92_">
					<path d="M947.408,250.648c-0.433-0.432-0.433-0.864,0-1.296l1.943-1.944c0.433-0.432,0.864-0.432,1.297,0l1.943,1.944
						c0.433,0.432,0.433,0.864,0,1.296l-1.943,1.944c-0.433,0.432-0.864,0.432-1.297,0L947.408,250.648z"/>
				</g>
			</g>
			<g transform="translate(950,350) scale(0.0792) rotate(0)">
				<g id="shape_10_1_93_">
					<path d="M946.832,350.792c-0.528-0.528-0.528-1.056,0-1.584l2.376-2.376c0.528-0.528,1.056-0.528,1.584,0l2.376,2.376
						c0.528,0.528,0.528,1.056,0,1.584l-2.376,2.376c-0.528,0.528-1.056,0.528-1.584,0L946.832,350.792z"/>
				</g>
			</g>
			<g transform="translate(950,450) scale(0.0936) rotate(0)">
				<g id="shape_10_1_94_">
					<path d="M946.256,450.936c-0.624-0.623-0.624-1.248,0-1.871l2.809-2.809c0.623-0.624,1.248-0.624,1.871,0l2.809,2.809
						c0.624,0.623,0.624,1.248,0,1.871l-2.809,2.809c-0.623,0.624-1.248,0.624-1.871,0L946.256,450.936z"/>
				</g>
			</g>
			<g transform="translate(950,550) scale(0.108) rotate(0)">
				<g id="shape_10_1_95_">
					<path d="M945.68,551.08c-0.72-0.72-0.72-1.441,0-2.16l3.24-3.24c0.72-0.72,1.44-0.72,2.16,0l3.24,3.24
						c0.72,0.72,0.72,1.44,0,2.16l-3.24,3.24c-0.72,0.72-1.44,0.72-2.16,0L945.68,551.08z"/>
				</g>
			</g>
			<g transform="translate(950,650) scale(0.1224) rotate(0)">
				<g id="shape_10_1_96_">
					<path d="M945.103,651.224c-0.815-0.815-0.815-1.632,0-2.447l3.673-3.673c0.815-0.815,1.632-0.815,2.447,0l3.673,3.673
						c0.815,0.815,0.815,1.632,0,2.447l-3.673,3.673c-0.815,0.815-1.632,0.815-2.447,0L945.103,651.224z"/>
				</g>
			</g>
			<g transform="translate(950,750) scale(0.1368) rotate(0)">
				<g id="shape_10_1_97_">
					<path d="M944.528,751.368c-0.912-0.912-0.912-1.824,0-2.736l4.104-4.103c0.912-0.912,1.824-0.912,2.736,0l4.104,4.103
						c0.912,0.912,0.912,1.824,0,2.736l-4.104,4.103c-0.912,0.912-1.824,0.912-2.736,0L944.528,751.368z"/>
				</g>
			</g>
			<g transform="translate(950,850) scale(0.1512) rotate(0)">
				<g id="shape_10_1_98_">
					<path d="M943.952,851.512c-1.008-1.008-1.008-2.016,0-3.023l4.536-4.536c1.008-1.008,2.016-1.008,3.023,0l4.536,4.536
						c1.008,1.008,1.008,2.016,0,3.023l-4.536,4.536c-1.008,1.008-2.016,1.008-3.023,0L943.952,851.512z"/>
				</g>
			</g>
			<g transform="translate(950,950) scale(0.1656) rotate(0)">
				<g id="shape_10_1_99_">
					<path d="M943.376,951.656c-1.104-1.104-1.104-2.208,0-3.313l4.968-4.968c1.104-1.103,2.208-1.103,3.313,0l4.968,4.968
						c1.104,1.104,1.104,2.208,0,3.313l-4.968,4.968c-1.105,1.103-2.208,1.103-3.313,0L943.376,951.656z"/>
				</g>
			</g>
			<g transform="translate(0,0) scale(0.1536) rotate(0)">
				<g id="shape_other_10_1">
					<path d="M-6.144,1.536c-1.024-1.024-1.024-2.048,0-3.072l4.608-4.608c1.024-1.024,2.048-1.024,3.072,0l4.608,4.608
						c1.024,1.024,1.024,2.048,0,3.072L1.536,6.144c-1.024,1.024-2.048,1.024-3.072,0L-6.144,1.536z"/>
				</g>
			</g>
			<g transform="translate(0,100) scale(0.2304) rotate(0)">
				<g id="shape_other_10_1_1_">
					<path d="M-9.216,102.304c-1.536-1.536-1.536-3.072,0-4.608l6.912-6.912c1.536-1.536,3.072-1.536,4.608,0l6.912,6.912
						c1.536,1.536,1.536,3.072,0,4.608l-6.912,6.912c-1.536,1.536-3.072,1.536-4.608,0L-9.216,102.304z"/>
				</g>
			</g>
			<g transform="translate(0,200) scale(0.3072) rotate(0)">
				<g id="shape_other_10_1_2_">
					<path d="M-12.288,203.072c-2.048-2.048-2.048-4.096,0-6.145l9.216-9.216c2.048-2.048,4.096-2.048,6.144,0l9.216,9.216
						c2.048,2.048,2.048,4.096,0,6.145l-9.216,9.216c-2.048,2.048-4.096,2.048-6.144,0L-12.288,203.072z"/>
				</g>
			</g>
			<g transform="translate(0,300) scale(0.384) rotate(0)">
				<g id="shape_other_10_1_3_">
					<path d="M-15.36,303.84c-2.56-2.56-2.56-5.12,0-7.68l11.52-11.52c2.56-2.56,5.12-2.56,7.68,0l11.52,11.52
						c2.56,2.56,2.56,5.12,0,7.68L3.84,315.36c-2.56,2.56-5.12,2.56-7.68,0L-15.36,303.84z"/>
				</g>
			</g>
			<g transform="translate(0,400) scale(0.4608) rotate(0)">
				<g id="shape_other_10_1_4_">
					<path d="M-18.432,404.608c-3.072-3.072-3.072-6.145,0-9.216l13.824-13.824c3.072-3.072,6.144-3.072,9.216,0l13.824,13.824
						c3.072,3.072,3.072,6.144,0,9.216L4.608,418.432c-3.072,3.072-6.144,3.072-9.216,0L-18.432,404.608z"/>
				</g>
			</g>
			<g transform="translate(0,500) scale(0.5376) rotate(0)">
				<g id="shape_other_10_1_5_">
					<path d="M-21.504,505.376c-3.584-3.584-3.584-7.168,0-10.752l16.128-16.128c3.584-3.584,7.168-3.584,10.752,0l16.128,16.128
						c3.584,3.584,3.584,7.168,0,10.752L5.376,521.504c-3.584,3.584-7.168,3.584-10.752,0L-21.504,505.376z"/>
				</g>
			</g>
			<g transform="translate(0,600) scale(0.6144) rotate(0)">
				<g id="shape_other_10_1_6_">
					<path d="M-24.576,606.144c-4.096-4.096-4.096-8.192,0-12.287l18.432-18.433c4.096-4.096,8.192-4.096,12.288,0l18.432,18.433
						c4.096,4.096,4.096,8.192,0,12.287L6.144,624.576c-4.096,4.096-8.192,4.096-12.288,0L-24.576,606.144z"/>
				</g>
			</g>
			<g transform="translate(0,700) scale(0.6912) rotate(0)">
				<g id="shape_other_10_1_7_">
					<path d="M-27.648,706.912c-4.608-4.608-4.608-9.216,0-13.824l20.736-20.736c4.608-4.608,9.216-4.608,13.824,0l20.736,20.736
						c4.608,4.608,4.608,9.216,0,13.824L6.912,727.648c-4.608,4.608-9.216,4.608-13.824,0L-27.648,706.912z"/>
				</g>
			</g>
			<g transform="translate(0,800) scale(0.768) rotate(0)">
				<g id="shape_other_10_1_8_">
					<path d="M-30.72,807.68c-5.12-5.12-5.12-10.239,0-15.359l23.04-23.04c5.12-5.12,10.24-5.12,15.36,0l23.04,23.04
						c5.12,5.12,5.12,10.239,0,15.359L7.68,830.72c-5.12,5.12-10.24,5.12-15.36,0L-30.72,807.68z"/>
				</g>
			</g>
			<g transform="translate(0,900) scale(0.8448) rotate(0)">
				<g id="shape_other_10_1_9_">
					<path d="M-33.792,908.448c-5.632-5.632-5.632-11.265,0-16.896l25.344-25.344c5.632-5.632,11.264-5.632,16.896,0l25.344,25.344
						c5.632,5.632,5.632,11.265,0,16.896L8.448,933.792c-5.632,5.632-11.264,5.632-16.896,0L-33.792,908.448z"/>
				</g>
			</g>
			<g transform="translate(0,1000) scale(0.9216) rotate(0)">
				<g id="shape_other_10_1_10_">
					<path d="M-36.864,1009.216c-6.144-6.143-6.144-12.288,0-18.432l27.648-27.648c6.144-6.143,12.288-6.143,18.432,0l27.648,27.648
						c6.144,6.143,6.144,12.288,0,18.432l-27.648,27.648c-6.144,6.144-12.288,6.144-18.432,0L-36.864,1009.216z"/>
				</g>
			</g>
			<g transform="translate(100,0) scale(0.1408) rotate(0)">
				<g id="shape_other_10_1_11_">
					<path d="M94.368,1.408c-0.939-0.939-0.939-1.877,0-2.816l4.224-4.224c0.939-0.939,1.877-0.939,2.816,0l4.224,4.224
						c0.939,0.939,0.939,1.877,0,2.816l-4.224,4.224c-0.939,0.939-1.877,0.939-2.816,0L94.368,1.408z"/>
				</g>
			</g>
			<g transform="translate(100,100) scale(0.2112) rotate(0)">
				<g id="shape_other_10_1_12_">
					<path d="M91.552,102.112c-1.408-1.408-1.408-2.816,0-4.224l6.336-6.336c1.408-1.408,2.816-1.408,4.224,0l6.336,6.336
						c1.408,1.408,1.408,2.816,0,4.224l-6.336,6.336c-1.408,1.408-2.816,1.408-4.224,0L91.552,102.112z"/>
				</g>
			</g>
			<g transform="translate(100,200) scale(0.2816) rotate(0)">
				<g id="shape_other_10_1_13_">
					<path d="M88.736,202.816c-1.877-1.877-1.877-3.754,0-5.632l8.448-8.448c1.877-1.877,3.754-1.877,5.632,0l8.448,8.448
						c1.877,1.877,1.877,3.754,0,5.632l-8.448,8.448c-1.877,1.877-3.754,1.877-5.632,0L88.736,202.816z"/>
				</g>
			</g>
			<g transform="translate(100,300) scale(0.352) rotate(0)">
				<g id="shape_other_10_1_14_">
					<path d="M85.92,303.52c-2.347-2.347-2.347-4.693,0-7.04l10.56-10.56c2.347-2.347,4.693-2.347,7.04,0l10.56,10.56
						c2.347,2.347,2.347,4.693,0,7.04l-10.56,10.56c-2.347,2.347-4.693,2.347-7.04,0L85.92,303.52z"/>
				</g>
			</g>
			<g transform="translate(100,400) scale(0.4224) rotate(0)">
				<g id="shape_other_10_1_15_">
					<path d="M83.104,404.224c-2.816-2.815-2.816-5.632,0-8.448l12.672-12.672c2.816-2.816,5.632-2.816,8.448,0l12.672,12.672
						c2.816,2.816,2.816,5.632,0,8.448l-12.672,12.673c-2.816,2.815-5.632,2.815-8.448,0L83.104,404.224z"/>
				</g>
			</g>
			<g transform="translate(100,500) scale(0.4928) rotate(0)">
				<g id="shape_other_10_1_16_">
					<path d="M80.288,504.928c-3.286-3.285-3.286-6.57,0-9.855l14.784-14.784c3.286-3.285,6.571-3.285,9.856,0l14.784,14.784
						c3.286,3.285,3.286,6.57,0,9.855l-14.784,14.784c-3.286,3.285-6.571,3.285-9.856,0L80.288,504.928z"/>
				</g>
			</g>
			<g transform="translate(100,600) scale(0.5632) rotate(0)">
				<g id="shape_other_10_1_17_">
					<path d="M77.472,605.632c-3.755-3.755-3.755-7.509,0-11.264l16.896-16.897c3.754-3.754,7.509-3.754,11.264,0l16.896,16.897
						c3.755,3.755,3.755,7.509,0,11.264l-16.896,16.896c-3.754,3.754-7.509,3.754-11.264,0L77.472,605.632z"/>
				</g>
			</g>
			<g transform="translate(100,700) scale(0.6336) rotate(0)">
				<g id="shape_other_10_1_18_">
					<path d="M74.656,706.336c-4.224-4.224-4.224-8.448,0-12.672l19.008-19.008c4.224-4.225,8.448-4.225,12.672,0l19.008,19.008
						c4.224,4.224,4.224,8.448,0,12.672l-19.008,19.008c-4.224,4.225-8.448,4.225-12.672,0L74.656,706.336z"/>
				</g>
			</g>
			<g transform="translate(100,800) scale(0.704) rotate(0)">
				<g id="shape_other_10_1_19_">
					<path d="M71.84,807.04c-4.693-4.693-4.693-9.387,0-14.08l21.12-21.12c4.693-4.693,9.387-4.693,14.08,0l21.12,21.12
						c4.693,4.693,4.693,9.387,0,14.08l-21.12,21.12c-4.693,4.693-9.387,4.693-14.08,0L71.84,807.04z"/>
				</g>
			</g>
			<g transform="translate(100,900) scale(0.7744) rotate(0)">
				<g id="shape_other_10_1_20_">
					<path d="M69.024,907.744c-5.163-5.163-5.163-10.325,0-15.488l23.232-23.231c5.163-5.163,10.326-5.163,15.488,0l23.232,23.231
						c5.163,5.163,5.163,10.325,0,15.488l-23.232,23.232c-5.163,5.163-10.326,5.163-15.488,0L69.024,907.744z"/>
				</g>
			</g>
			<g transform="translate(100,1000) scale(0.8448) rotate(0)">
				<g id="shape_other_10_1_21_">
					<path d="M66.208,1008.448c-5.632-5.632-5.632-11.265,0-16.896l25.344-25.344c5.632-5.632,11.264-5.632,16.896,0l25.344,25.344
						c5.632,5.632,5.632,11.265,0,16.896l-25.344,25.344c-5.632,5.632-11.264,5.632-16.896,0L66.208,1008.448z"/>
				</g>
			</g>
			<g transform="translate(200,0) scale(0.128) rotate(0)">
				<g id="shape_other_10_1_22_">
					<path d="M194.88,1.28c-0.853-0.854-0.853-1.707,0-2.561l3.84-3.84c0.853-0.853,1.707-0.853,2.56,0l3.84,3.84
						c0.853,0.854,0.853,1.707,0,2.561l-3.84,3.84c-0.853,0.853-1.707,0.853-2.56,0L194.88,1.28z"/>
				</g>
			</g>
			<g transform="translate(200,100) scale(0.192) rotate(0)">
				<g id="shape_other_10_1_23_">
					<path d="M192.32,101.92c-1.28-1.28-1.28-2.56,0-3.84l5.76-5.76c1.28-1.28,2.56-1.28,3.84,0l5.76,5.76
						c1.28,1.28,1.28,2.56,0,3.84l-5.76,5.76c-1.28,1.28-2.56,1.28-3.84,0L192.32,101.92z"/>
				</g>
			</g>
			<g transform="translate(200,200) scale(0.256) rotate(0)">
				<g id="shape_other_10_1_24_">
					<path d="M189.76,202.56c-1.707-1.707-1.707-3.414,0-5.12l7.68-7.68c1.707-1.707,3.414-1.707,5.12,0l7.68,7.68
						c1.707,1.707,1.707,3.414,0,5.12l-7.68,7.68c-1.707,1.707-3.414,1.707-5.12,0L189.76,202.56z"/>
				</g>
			</g>
			<g transform="translate(200,300) scale(0.32) rotate(0)">
				<g id="shape_other_10_1_25_">
					<path d="M187.2,303.2c-2.133-2.133-2.133-4.267,0-6.4l9.6-9.6c2.133-2.133,4.267-2.133,6.4,0l9.6,9.6
						c2.133,2.133,2.133,4.267,0,6.4l-9.6,9.6c-2.133,2.133-4.267,2.133-6.4,0L187.2,303.2z"/>
				</g>
			</g>
			<g transform="translate(200,400) scale(0.384) rotate(0)">
				<g id="shape_other_10_1_26_">
					<path d="M184.64,403.84c-2.56-2.56-2.56-5.12,0-7.68l11.52-11.52c2.56-2.56,5.12-2.56,7.68,0l11.52,11.52
						c2.56,2.56,2.56,5.12,0,7.68l-11.52,11.521c-2.56,2.56-5.12,2.56-7.68,0L184.64,403.84z"/>
				</g>
			</g>
			<g transform="translate(200,500) scale(0.448) rotate(0)">
				<g id="shape_other_10_1_27_">
					<path d="M182.08,504.48c-2.987-2.987-2.987-5.974,0-8.961l13.44-13.439c2.987-2.986,5.973-2.986,8.96,0l13.44,13.439
						c2.987,2.987,2.987,5.974,0,8.961l-13.44,13.439c-2.987,2.986-5.973,2.986-8.96,0L182.08,504.48z"/>
				</g>
			</g>
			<g transform="translate(200,600) scale(0.512) rotate(0)">
				<g id="shape_other_10_1_28_">
					<path d="M179.52,605.12c-3.414-3.413-3.414-6.827,0-10.24l15.36-15.36c3.414-3.413,6.827-3.413,10.24,0l15.36,15.36
						c3.414,3.413,3.414,6.827,0,10.24l-15.36,15.36c-3.414,3.413-6.827,3.413-10.24,0L179.52,605.12z"/>
				</g>
			</g>
			<g transform="translate(200,700) scale(0.576) rotate(0)">
				<g id="shape_other_10_1_29_">
					<path d="M176.96,705.76c-3.84-3.84-3.84-7.68,0-11.52l17.28-17.28c3.84-3.84,7.68-3.84,11.52,0l17.28,17.28
						c3.84,3.84,3.84,7.68,0,11.52l-17.28,17.28c-3.84,3.84-7.68,3.84-11.52,0L176.96,705.76z"/>
				</g>
			</g>
			<g transform="translate(200,800) scale(0.64) rotate(0)">
				<g id="shape_other_10_1_30_">
					<path d="M174.4,806.4c-4.267-4.267-4.267-8.534,0-12.801l19.2-19.199c4.267-4.267,8.533-4.267,12.8,0l19.2,19.199
						c4.267,4.267,4.267,8.534,0,12.801L206.4,825.6c-4.267,4.267-8.533,4.267-12.8,0L174.4,806.4z"/>
				</g>
			</g>
			<g transform="translate(200,900) scale(0.704) rotate(0)">
				<g id="shape_other_10_1_31_">
					<path d="M171.84,907.04c-4.693-4.693-4.693-9.387,0-14.08l21.12-21.12c4.693-4.693,9.387-4.693,14.08,0l21.12,21.12
						c4.693,4.693,4.693,9.387,0,14.08l-21.12,21.12c-4.693,4.693-9.387,4.693-14.08,0L171.84,907.04z"/>
				</g>
			</g>
			<g transform="translate(200,1000) scale(0.768) rotate(0)">
				<g id="shape_other_10_1_32_">
					<path d="M169.28,1007.68c-5.12-5.12-5.12-10.239,0-15.359l23.04-23.04c5.12-5.12,10.24-5.12,15.36,0l23.04,23.04
						c5.12,5.12,5.12,10.239,0,15.359l-23.04,23.04c-5.12,5.12-10.24,5.12-15.36,0L169.28,1007.68z"/>
				</g>
			</g>
			<g transform="translate(300,0) scale(0.1152) rotate(0)">
				<g id="shape_other_10_1_33_">
					<path d="M295.392,1.152c-0.768-0.768-0.768-1.536,0-2.304l3.456-3.456c0.768-0.768,1.536-0.768,2.304,0l3.456,3.456
						c0.768,0.768,0.768,1.536,0,2.304l-3.456,3.456c-0.768,0.768-1.536,0.768-2.304,0L295.392,1.152z"/>
				</g>
			</g>
			<g transform="translate(300,100) scale(0.1728) rotate(0)">
				<g id="shape_other_10_1_34_">
					<path d="M293.088,101.728c-1.152-1.152-1.152-2.304,0-3.456l5.184-5.184c1.152-1.152,2.304-1.152,3.456,0l5.184,5.184
						c1.152,1.152,1.152,2.304,0,3.456l-5.184,5.184c-1.152,1.152-2.304,1.152-3.456,0L293.088,101.728z"/>
				</g>
			</g>
			<g transform="translate(300,200) scale(0.2304) rotate(0)">
				<g id="shape_other_10_1_35_">
					<path d="M290.784,202.304c-1.536-1.536-1.536-3.072,0-4.608l6.912-6.912c1.536-1.536,3.072-1.536,4.608,0l6.912,6.912
						c1.536,1.536,1.536,3.072,0,4.608l-6.912,6.912c-1.536,1.536-3.072,1.536-4.608,0L290.784,202.304z"/>
				</g>
			</g>
			<g transform="translate(300,300) scale(0.288) rotate(0)">
				<g id="shape_other_10_1_36_">
					<path d="M288.48,302.88c-1.92-1.92-1.92-3.84,0-5.76l8.64-8.64c1.92-1.92,3.84-1.92,5.76,0l8.64,8.64
						c1.921,1.92,1.921,3.84,0,5.76l-8.64,8.64c-1.92,1.92-3.84,1.92-5.76,0L288.48,302.88z"/>
				</g>
			</g>
			<g transform="translate(300,400) scale(0.3456) rotate(0)">
				<g id="shape_other_10_1_37_">
					<path d="M286.176,403.456c-2.304-2.304-2.304-4.608,0-6.912l10.368-10.368c2.304-2.304,4.608-2.304,6.912,0l10.368,10.368
						c2.304,2.304,2.304,4.608,0,6.912l-10.368,10.368c-2.304,2.304-4.608,2.304-6.912,0L286.176,403.456z"/>
				</g>
			</g>
			<g transform="translate(300,500) scale(0.4032) rotate(0)">
				<g id="shape_other_10_1_38_">
					<path d="M283.872,504.032c-2.688-2.688-2.688-5.376,0-8.064l12.096-12.096c2.689-2.688,5.376-2.688,8.064,0l12.096,12.096
						c2.689,2.688,2.689,5.376,0,8.064l-12.096,12.096c-2.688,2.688-5.376,2.688-8.064,0L283.872,504.032z"/>
				</g>
			</g>
			<g transform="translate(300,600) scale(0.4608) rotate(0)">
				<g id="shape_other_10_1_39_">
					<path d="M281.568,604.608c-3.072-3.072-3.072-6.144,0-9.217l13.824-13.823c3.072-3.072,6.144-3.072,9.216,0l13.824,13.823
						c3.072,3.072,3.072,6.145,0,9.217l-13.824,13.823c-3.072,3.072-6.144,3.072-9.216,0L281.568,604.608z"/>
				</g>
			</g>
			<g transform="translate(300,700) scale(0.5184) rotate(0)">
				<g id="shape_other_10_1_40_">
					<path d="M279.264,705.184c-3.456-3.456-3.456-6.911,0-10.367l15.552-15.553c3.456-3.456,6.912-3.456,10.368,0l15.552,15.553
						c3.456,3.456,3.456,6.911,0,10.367l-15.552,15.553c-3.456,3.456-6.912,3.456-10.368,0L279.264,705.184z"/>
				</g>
			</g>
			<g transform="translate(300,800) scale(0.576) rotate(0)">
				<g id="shape_other_10_1_41_">
					<path d="M276.96,805.76c-3.84-3.84-3.84-7.68,0-11.52l17.28-17.28c3.84-3.84,7.68-3.84,11.52,0l17.28,17.28
						c3.84,3.84,3.84,7.68,0,11.52l-17.28,17.28c-3.84,3.84-7.68,3.84-11.52,0L276.96,805.76z"/>
				</g>
			</g>
			<g transform="translate(300,900) scale(0.6336) rotate(0)">
				<g id="shape_other_10_1_42_">
					<path d="M274.656,906.336c-4.224-4.224-4.224-8.448,0-12.672l19.008-19.008c4.224-4.225,8.448-4.225,12.672,0l19.008,19.008
						c4.225,4.224,4.225,8.448,0,12.672l-19.008,19.008c-4.224,4.225-8.448,4.225-12.672,0L274.656,906.336z"/>
				</g>
			</g>
			<g transform="translate(300,1000) scale(0.6912) rotate(0)">
				<g id="shape_other_10_1_43_">
					<path d="M272.352,1006.912c-4.608-4.608-4.608-9.216,0-13.824l20.736-20.736c4.608-4.608,9.216-4.608,13.824,0l20.736,20.736
						c4.607,4.608,4.607,9.216,0,13.824l-20.736,20.736c-4.608,4.607-9.216,4.607-13.824,0L272.352,1006.912z"/>
				</g>
			</g>
			<g transform="translate(400,0) scale(0.1024) rotate(0)">
				<g id="shape_other_10_1_44_">
					<path d="M395.904,1.024c-0.683-0.683-0.683-1.365,0-2.048l3.071-3.072c0.683-0.683,1.366-0.683,2.049,0l3.071,3.072
						c0.683,0.683,0.683,1.365,0,2.048l-3.071,3.072c-0.683,0.683-1.366,0.683-2.049,0L395.904,1.024z"/>
				</g>
			</g>
			<g transform="translate(400,100) scale(0.1536) rotate(0)">
				<g id="shape_other_10_1_45_">
					<path d="M393.856,101.536c-1.024-1.024-1.024-2.048,0-3.072l4.608-4.608c1.024-1.024,2.048-1.024,3.072,0l4.607,4.608
						c1.024,1.024,1.024,2.048,0,3.072l-4.607,4.608c-1.024,1.024-2.048,1.024-3.072,0L393.856,101.536z"/>
				</g>
			</g>
			<g transform="translate(400,200) scale(0.2048) rotate(0)">
				<g id="shape_other_10_1_46_">
					<path d="M391.808,202.048c-1.365-1.365-1.365-2.73,0-4.096l6.145-6.144c1.365-1.365,2.73-1.365,4.096,0l6.145,6.144
						c1.365,1.365,1.365,2.73,0,4.096l-6.145,6.144c-1.365,1.365-2.73,1.365-4.096,0L391.808,202.048z"/>
				</g>
			</g>
			<g transform="translate(400,300) scale(0.256) rotate(0)">
				<g id="shape_other_10_1_47_">
					<path d="M389.76,302.56c-1.706-1.707-1.706-3.414,0-5.12l7.681-7.68c1.706-1.707,3.413-1.707,5.119,0l7.681,7.68
						c1.706,1.707,1.706,3.414,0,5.12l-7.681,7.68c-1.706,1.707-3.413,1.707-5.119,0L389.76,302.56z"/>
				</g>
			</g>
			<g transform="translate(400,400) scale(0.3072) rotate(0)">
				<g id="shape_other_10_1_48_">
					<path d="M387.712,403.072c-2.048-2.048-2.048-4.097,0-6.145l9.216-9.216c2.048-2.048,4.097-2.048,6.145,0l9.216,9.216
						c2.048,2.048,2.048,4.097,0,6.145l-9.216,9.216c-2.048,2.048-4.097,2.048-6.145,0L387.712,403.072z"/>
				</g>
			</g>
			<g transform="translate(400,500) scale(0.3584) rotate(0)">
				<g id="shape_other_10_1_49_">
					<path d="M385.664,503.584c-2.39-2.39-2.39-4.778,0-7.168l10.752-10.752c2.39-2.39,4.778-2.39,7.168,0l10.752,10.752
						c2.39,2.39,2.39,4.778,0,7.168l-10.752,10.752c-2.39,2.39-4.778,2.39-7.168,0L385.664,503.584z"/>
				</g>
			</g>
			<g transform="translate(400,600) scale(0.4096) rotate(0)">
				<g id="shape_other_10_1_50_">
					<path d="M383.616,604.096c-2.73-2.73-2.73-5.461,0-8.191l12.288-12.288c2.73-2.731,5.461-2.731,8.191,0l12.288,12.288
						c2.73,2.731,2.73,5.461,0,8.191l-12.288,12.288c-2.73,2.731-5.461,2.731-8.191,0L383.616,604.096z"/>
				</g>
			</g>
			<g transform="translate(400,700) scale(0.4608) rotate(0)">
				<g id="shape_other_10_1_51_">
					<path d="M381.568,704.608c-3.072-3.072-3.072-6.144,0-9.217l13.823-13.823c3.072-3.072,6.145-3.072,9.217,0l13.823,13.823
						c3.072,3.072,3.072,6.145,0,9.217l-13.823,13.823c-3.072,3.072-6.145,3.072-9.217,0L381.568,704.608z"/>
				</g>
			</g>
			<g transform="translate(400,800) scale(0.512) rotate(0)">
				<g id="shape_other_10_1_52_">
					<path d="M379.52,805.12c-3.413-3.413-3.413-6.827,0-10.24l15.36-15.36c3.413-3.413,6.827-3.413,10.24,0l15.36,15.36
						c3.413,3.413,3.413,6.827,0,10.24l-15.36,15.36c-3.413,3.413-6.827,3.413-10.24,0L379.52,805.12z"/>
				</g>
			</g>
			<g transform="translate(400,900) scale(0.5632) rotate(0)">
				<g id="shape_other_10_1_53_">
					<path d="M377.472,905.632c-3.754-3.755-3.754-7.509,0-11.264l16.896-16.896c3.755-3.754,7.509-3.754,11.264,0l16.896,16.896
						c3.754,3.755,3.754,7.509,0,11.264l-16.896,16.896c-3.755,3.754-7.509,3.754-11.264,0L377.472,905.632z"/>
				</g>
			</g>
			<g transform="translate(400,1000) scale(0.6144) rotate(0)">
				<g id="shape_other_10_1_54_">
					<path d="M375.424,1006.144c-4.096-4.096-4.096-8.192,0-12.287l18.433-18.433c4.096-4.096,8.191-4.096,12.287,0l18.433,18.433
						c4.096,4.096,4.096,8.192,0,12.287l-18.433,18.433c-4.096,4.096-8.191,4.096-12.287,0L375.424,1006.144z"/>
				</g>
			</g>
			<g transform="translate(500,0) scale(0.0896) rotate(0)">
				<g id="shape_other_10_1_55_">
					<path d="M496.416,0.896c-0.598-0.597-0.598-1.195,0-1.792l2.688-2.688c0.598-0.597,1.195-0.597,1.793,0l2.688,2.688
						c0.598,0.597,0.598,1.195,0,1.792l-2.688,2.688c-0.598,0.597-1.195,0.597-1.793,0L496.416,0.896z"/>
				</g>
			</g>
			<g transform="translate(500,100) scale(0.1344) rotate(0)">
				<g id="shape_other_10_1_56_">
					<path d="M494.624,101.344c-0.897-0.896-0.897-1.792,0-2.688l4.032-4.032c0.896-0.896,1.792-0.896,2.688,0l4.032,4.032
						c0.896,0.896,0.896,1.792,0,2.688l-4.032,4.032c-0.896,0.896-1.792,0.896-2.688,0L494.624,101.344z"/>
				</g>
			</g>
			<g transform="translate(500,200) scale(0.1792) rotate(0)">
				<g id="shape_other_10_1_57_">
					<path d="M492.832,201.792c-1.194-1.195-1.194-2.389,0-3.584l5.376-5.376c1.194-1.195,2.39-1.195,3.584,0l5.376,5.376
						c1.194,1.195,1.194,2.389,0,3.584l-5.376,5.376c-1.194,1.195-2.39,1.195-3.584,0L492.832,201.792z"/>
				</g>
			</g>
			<g transform="translate(500,300) scale(0.224) rotate(0)">
				<g id="shape_other_10_1_58_">
					<path d="M491.04,302.24c-1.493-1.494-1.493-2.987,0-4.48l6.72-6.72c1.493-1.493,2.987-1.493,4.48,0l6.72,6.72
						c1.493,1.494,1.493,2.987,0,4.48l-6.72,6.72c-1.493,1.493-2.987,1.493-4.48,0L491.04,302.24z"/>
				</g>
			</g>
			<g transform="translate(500,400) scale(0.2688) rotate(0)">
				<g id="shape_other_10_1_59_">
					<path d="M489.248,402.688c-1.792-1.791-1.792-3.584,0-5.375l8.065-8.065c1.791-1.792,3.584-1.792,5.375,0l8.065,8.065
						c1.792,1.791,1.792,3.584,0,5.375l-8.065,8.065c-1.791,1.792-3.584,1.792-5.375,0L489.248,402.688z"/>
				</g>
			</g>
			<g transform="translate(500,500) scale(0.3136) rotate(0)">
				<g id="shape_other_10_1_60_">
					<path d="M487.456,503.136c-2.091-2.091-2.091-4.181,0-6.271l9.408-9.408c2.091-2.091,4.181-2.091,6.271,0l9.408,9.408
						c2.091,2.091,2.091,4.181,0,6.271l-9.408,9.408c-2.091,2.091-4.181,2.091-6.271,0L487.456,503.136z"/>
				</g>
			</g>
			<g transform="translate(500,600) scale(0.3584) rotate(0)">
				<g id="shape_other_10_1_61_">
					<path d="M485.664,603.584c-2.39-2.39-2.39-4.778,0-7.168l10.752-10.752c2.39-2.39,4.778-2.39,7.168,0l10.752,10.752
						c2.39,2.39,2.39,4.778,0,7.168l-10.752,10.752c-2.39,2.39-4.778,2.39-7.168,0L485.664,603.584z"/>
				</g>
			</g>
			<g transform="translate(500,700) scale(0.4032) rotate(0)">
				<g id="shape_other_10_1_62_">
					<path d="M483.872,704.032c-2.689-2.689-2.689-5.376,0-8.064l12.096-12.096c2.688-2.689,5.376-2.689,8.064,0l12.096,12.096
						c2.689,2.688,2.689,5.376,0,8.064l-12.096,12.096c-2.688,2.688-5.376,2.688-8.064,0L483.872,704.032z"/>
				</g>
			</g>
			<g transform="translate(500,800) scale(0.448) rotate(0)">
				<g id="shape_other_10_1_63_">
					<path d="M482.08,804.481c-2.986-2.987-2.986-5.974,0-8.961l13.439-13.439c2.987-2.986,5.974-2.986,8.961,0l13.439,13.439
						c2.986,2.987,2.986,5.974,0,8.961L504.48,817.92c-2.987,2.986-5.974,2.986-8.961,0L482.08,804.481z"/>
				</g>
			</g>
			<g transform="translate(500,900) scale(0.4928) rotate(0)">
				<g id="shape_other_10_1_64_">
					<path d="M480.288,904.928c-3.285-3.285-3.285-6.57,0-9.855l14.784-14.784c3.285-3.285,6.57-3.285,9.855,0l14.784,14.784
						c3.285,3.285,3.285,6.57,0,9.855l-14.784,14.784c-3.285,3.285-6.57,3.285-9.855,0L480.288,904.928z"/>
				</g>
			</g>
			<g transform="translate(500,1000) scale(0.5376) rotate(0)">
				<g id="shape_other_10_1_65_">
					<path d="M478.496,1005.376c-3.584-3.584-3.584-7.168,0-10.752l16.128-16.128c3.584-3.584,7.168-3.584,10.752,0l16.128,16.128
						c3.584,3.584,3.584,7.168,0,10.752l-16.128,16.128c-3.584,3.584-7.168,3.584-10.752,0L478.496,1005.376z"/>
				</g>
			</g>
			<g transform="translate(600,0) scale(0.0768) rotate(0)">
				<g id="shape_other_10_1_66_">
					<path d="M596.928,0.768c-0.512-0.512-0.512-1.024,0-1.536l2.305-2.304c0.512-0.512,1.023-0.512,1.535,0l2.305,2.304
						c0.512,0.512,0.512,1.024,0,1.536l-2.305,2.304c-0.512,0.512-1.023,0.512-1.535,0L596.928,0.768z"/>
				</g>
			</g>
			<g transform="translate(600,100) scale(0.1152) rotate(0)">
				<g id="shape_other_10_1_67_">
					<path d="M595.392,101.152c-0.768-0.768-0.768-1.536,0-2.304l3.456-3.456c0.768-0.768,1.536-0.768,2.305,0l3.456,3.456
						c0.768,0.768,0.768,1.536,0,2.304l-3.456,3.456c-0.768,0.768-1.536,0.768-2.305,0L595.392,101.152z"/>
				</g>
			</g>
			<g transform="translate(600,200) scale(0.1536) rotate(0)">
				<g id="shape_other_10_1_68_">
					<path d="M593.856,201.536c-1.024-1.024-1.024-2.048,0-3.072l4.607-4.608c1.024-1.024,2.048-1.024,3.072,0l4.608,4.608
						c1.024,1.024,1.024,2.048,0,3.072l-4.608,4.608c-1.024,1.024-2.048,1.024-3.072,0L593.856,201.536z"/>
				</g>
			</g>
			<g transform="translate(600,300) scale(0.192) rotate(0)">
				<g id="shape_other_10_1_69_">
					<path d="M592.32,301.92c-1.28-1.28-1.28-2.56,0-3.84l5.76-5.76c1.28-1.28,2.56-1.28,3.84,0l5.76,5.76
						c1.28,1.28,1.28,2.56,0,3.84l-5.76,5.76c-1.28,1.28-2.559,1.28-3.84,0L592.32,301.92z"/>
				</g>
			</g>
			<g transform="translate(600,400) scale(0.2304) rotate(0)">
				<g id="shape_other_10_1_70_">
					<path d="M590.784,402.304c-1.536-1.536-1.536-3.071,0-4.607l6.912-6.912c1.536-1.536,3.071-1.536,4.607,0l6.912,6.912
						c1.536,1.536,1.536,3.071,0,4.607l-6.912,6.912c-1.536,1.536-3.071,1.536-4.607,0L590.784,402.304z"/>
				</g>
			</g>
			<g transform="translate(600,500) scale(0.2688) rotate(0)">
				<g id="shape_other_10_1_71_">
					<path d="M589.248,502.688c-1.792-1.791-1.792-3.584,0-5.375l8.065-8.065c1.791-1.792,3.584-1.792,5.375,0l8.065,8.065
						c1.792,1.791,1.792,3.584,0,5.375l-8.065,8.065c-1.791,1.792-3.584,1.792-5.375,0L589.248,502.688z"/>
				</g>
			</g>
			<g transform="translate(600,600) scale(0.3072) rotate(0)">
				<g id="shape_other_10_1_72_">
					<path d="M587.712,603.072c-2.048-2.048-2.048-4.097,0-6.145l9.216-9.216c2.048-2.048,4.097-2.048,6.145,0l9.216,9.216
						c2.048,2.048,2.048,4.097,0,6.145l-9.216,9.216c-2.048,2.048-4.097,2.048-6.145,0L587.712,603.072z"/>
				</g>
			</g>
			<g transform="translate(600,700) scale(0.3456) rotate(0)">
				<g id="shape_other_10_1_73_">
					<path d="M586.176,703.456c-2.304-2.304-2.304-4.608,0-6.912l10.368-10.368c2.304-2.304,4.608-2.304,6.912,0l10.368,10.368
						c2.304,2.304,2.304,4.608,0,6.912l-10.368,10.368c-2.304,2.304-4.608,2.304-6.912,0L586.176,703.456z"/>
				</g>
			</g>
			<g transform="translate(600,800) scale(0.384) rotate(0)">
				<g id="shape_other_10_1_74_">
					<path d="M584.64,803.84c-2.56-2.56-2.56-5.12,0-7.68l11.521-11.521c2.559-2.56,5.12-2.56,7.68,0l11.521,11.521
						c2.559,2.56,2.559,5.12,0,7.68L603.84,815.36c-2.56,2.56-5.12,2.56-7.68,0L584.64,803.84z"/>
				</g>
			</g>
			<g transform="translate(600,900) scale(0.4224) rotate(0)">
				<g id="shape_other_10_1_75_">
					<path d="M583.104,904.224c-2.815-2.815-2.815-5.632,0-8.447l12.673-12.673c2.815-2.815,5.632-2.815,8.447,0l12.673,12.673
						c2.815,2.815,2.815,5.632,0,8.447l-12.673,12.673c-2.815,2.815-5.632,2.815-8.447,0L583.104,904.224z"/>
				</g>
			</g>
			<g transform="translate(600,1000) scale(0.4608) rotate(0)">
				<g id="shape_other_10_1_76_">
					<path d="M581.568,1004.608c-3.072-3.072-3.072-6.144,0-9.217l13.823-13.823c3.072-3.072,6.144-3.072,9.217,0l13.823,13.823
						c3.072,3.072,3.072,6.144,0,9.217l-13.823,13.823c-3.072,3.072-6.145,3.072-9.217,0L581.568,1004.608z"/>
				</g>
			</g>
			<g transform="translate(700,0) scale(0.064) rotate(0)">
				<g id="shape_other_10_1_77_">
					<path d="M697.44,0.64c-0.427-0.427-0.427-0.854,0-1.28l1.92-1.92c0.427-0.427,0.852-0.427,1.279,0l1.92,1.92
						c0.427,0.427,0.427,0.854,0,1.28l-1.92,1.92c-0.427,0.427-0.852,0.427-1.279,0L697.44,0.64z"/>
				</g>
			</g>
			<g transform="translate(700,100) scale(0.096) rotate(0)">
				<g id="shape_other_10_1_78_">
					<path d="M696.16,100.96c-0.641-0.64-0.641-1.28,0-1.92l2.88-2.88c0.64-0.64,1.28-0.64,1.92,0l2.88,2.88
						c0.641,0.64,0.641,1.28,0,1.92l-2.88,2.88c-0.64,0.64-1.28,0.64-1.92,0L696.16,100.96z"/>
				</g>
			</g>
			<g transform="translate(700,200) scale(0.128) rotate(0)">
				<g id="shape_other_10_1_79_">
					<path d="M694.88,201.28c-0.854-0.854-0.854-1.707,0-2.561l3.84-3.84c0.854-0.853,1.707-0.853,2.561,0l3.84,3.84
						c0.853,0.854,0.853,1.707,0,2.561l-3.84,3.84c-0.854,0.853-1.707,0.853-2.561,0L694.88,201.28z"/>
				</g>
			</g>
			<g transform="translate(700,300) scale(0.16) rotate(0)">
				<g id="shape_other_10_1_80_">
					<path d="M693.6,301.6c-1.066-1.067-1.066-2.133,0-3.2l4.801-4.8c1.066-1.067,2.133-1.067,3.199,0l4.801,4.8
						c1.066,1.067,1.066,2.133,0,3.2l-4.801,4.8c-1.066,1.067-2.133,1.067-3.199,0L693.6,301.6z"/>
				</g>
			</g>
			<g transform="translate(700,400) scale(0.192) rotate(0)">
				<g id="shape_other_10_1_81_">
					<path d="M692.32,401.92c-1.28-1.28-1.28-2.56,0-3.84l5.76-5.76c1.28-1.28,2.56-1.28,3.84,0l5.76,5.76
						c1.28,1.28,1.28,2.56,0,3.84l-5.76,5.76c-1.28,1.28-2.559,1.28-3.84,0L692.32,401.92z"/>
				</g>
			</g>
			<g transform="translate(700,500) scale(0.224) rotate(0)">
				<g id="shape_other_10_1_82_">
					<path d="M691.04,502.24c-1.493-1.493-1.493-2.987,0-4.48l6.72-6.72c1.493-1.493,2.987-1.493,4.48,0l6.72,6.72
						c1.493,1.493,1.493,2.987,0,4.48l-6.72,6.72c-1.493,1.493-2.987,1.493-4.48,0L691.04,502.24z"/>
				</g>
			</g>
			<g transform="translate(700,600) scale(0.256) rotate(0)">
				<g id="shape_other_10_1_83_">
					<path d="M689.76,602.56c-1.706-1.706-1.706-3.413,0-5.119l7.681-7.681c1.706-1.706,3.413-1.706,5.119,0l7.681,7.681
						c1.706,1.706,1.706,3.413,0,5.119l-7.681,7.681c-1.706,1.706-3.413,1.706-5.119,0L689.76,602.56z"/>
				</g>
			</g>
			<g transform="translate(700,700) scale(0.288) rotate(0)">
				<g id="shape_other_10_1_84_">
					<path d="M688.48,702.88c-1.921-1.92-1.921-3.84,0-5.76l8.64-8.64c1.92-1.921,3.84-1.921,5.76,0l8.64,8.64
						c1.921,1.92,1.921,3.84,0,5.76l-8.64,8.64c-1.92,1.921-3.84,1.921-5.76,0L688.48,702.88z"/>
				</g>
			</g>
			<g transform="translate(700,800) scale(0.32) rotate(0)">
				<g id="shape_other_10_1_85_">
					<path d="M687.2,803.2c-2.134-2.134-2.134-4.267,0-6.4l9.6-9.6c2.134-2.134,4.267-2.134,6.4,0l9.6,9.6
						c2.134,2.134,2.134,4.267,0,6.4l-9.6,9.6c-2.134,2.134-4.267,2.134-6.4,0L687.2,803.2z"/>
				</g>
			</g>
			<g transform="translate(700,900) scale(0.352) rotate(0)">
				<g id="shape_other_10_1_86_">
					<path d="M685.92,903.52c-2.347-2.347-2.347-4.692,0-7.039l10.561-10.561c2.346-2.347,4.693-2.347,7.039,0l10.561,10.561
						c2.347,2.347,2.347,4.692,0,7.039l-10.561,10.561c-2.346,2.347-4.693,2.347-7.039,0L685.92,903.52z"/>
				</g>
			</g>
			<g transform="translate(700,1000) scale(0.384) rotate(0)">
				<g id="shape_other_10_1_87_">
					<path d="M684.64,1003.84c-2.56-2.56-2.56-5.12,0-7.68l11.521-11.521c2.559-2.56,5.12-2.56,7.68,0l11.521,11.521
						c2.559,2.56,2.559,5.12,0,7.68l-11.521,11.521c-2.56,2.56-5.12,2.56-7.68,0L684.64,1003.84z"/>
				</g>
			</g>
			<g transform="translate(800,0) scale(0.0512) rotate(0)">
				<g id="shape_other_10_1_88_">
					<path d="M797.952,0.512c-0.342-0.341-0.342-0.683,0-1.024l1.536-1.536c0.341-0.341,0.683-0.341,1.023,0l1.536,1.536
						c0.342,0.341,0.342,0.683,0,1.024l-1.536,1.536c-0.341,0.341-0.683,0.341-1.023,0L797.952,0.512z"/>
				</g>
			</g>
			<g transform="translate(800,100) scale(0.0768) rotate(0)">
				<g id="shape_other_10_1_89_">
					<path d="M796.928,100.768c-0.512-0.512-0.512-1.024,0-1.536l2.305-2.304c0.512-0.512,1.023-0.512,1.535,0l2.305,2.304
						c0.512,0.512,0.512,1.024,0,1.536l-2.305,2.304c-0.512,0.512-1.023,0.512-1.535,0L796.928,100.768z"/>
				</g>
			</g>
			<g transform="translate(800,200) scale(0.1024) rotate(0)">
				<g id="shape_other_10_1_90_">
					<path d="M795.904,201.024c-0.683-0.683-0.683-1.365,0-2.048l3.071-3.072c0.683-0.683,1.366-0.683,2.049,0l3.071,3.072
						c0.683,0.683,0.683,1.365,0,2.048l-3.071,3.072c-0.683,0.683-1.366,0.683-2.049,0L795.904,201.024z"/>
				</g>
			</g>
			<g transform="translate(800,300) scale(0.128) rotate(0)">
				<g id="shape_other_10_1_91_">
					<path d="M794.88,301.28c-0.854-0.853-0.854-1.707,0-2.56l3.84-3.84c0.854-0.853,1.707-0.853,2.561,0l3.84,3.84
						c0.854,0.853,0.854,1.707,0,2.56l-3.84,3.84c-0.854,0.853-1.707,0.853-2.561,0L794.88,301.28z"/>
				</g>
			</g>
			<g transform="translate(800,400) scale(0.1536) rotate(0)">
				<g id="shape_other_10_1_92_">
					<path d="M793.856,401.536c-1.024-1.024-1.024-2.048,0-3.072l4.607-4.608c1.024-1.024,2.048-1.024,3.072,0l4.607,4.608
						c1.024,1.024,1.024,2.048,0,3.072l-4.607,4.608c-1.024,1.024-2.048,1.024-3.072,0L793.856,401.536z"/>
				</g>
			</g>
			<g transform="translate(800,500) scale(0.1792) rotate(0)">
				<g id="shape_other_10_1_93_">
					<path d="M792.832,501.792c-1.194-1.194-1.194-2.39,0-3.584l5.376-5.376c1.194-1.194,2.39-1.194,3.584,0l5.376,5.376
						c1.194,1.194,1.194,2.39,0,3.584l-5.376,5.376c-1.194,1.194-2.39,1.194-3.584,0L792.832,501.792z"/>
				</g>
			</g>
			<g transform="translate(800,600) scale(0.2048) rotate(0)">
				<g id="shape_other_10_1_94_">
					<path d="M791.808,602.048c-1.365-1.365-1.365-2.731,0-4.096l6.145-6.144c1.365-1.365,2.73-1.365,4.096,0l6.144,6.144
						c1.365,1.365,1.365,2.731,0,4.096l-6.144,6.144c-1.365,1.365-2.731,1.365-4.096,0L791.808,602.048z"/>
				</g>
			</g>
			<g transform="translate(800,700) scale(0.2304) rotate(0)">
				<g id="shape_other_10_1_95_">
					<path d="M790.784,702.304c-1.536-1.536-1.536-3.071,0-4.607l6.912-6.912c1.536-1.536,3.071-1.536,4.607,0l6.912,6.912
						c1.536,1.536,1.536,3.071,0,4.607l-6.912,6.912c-1.536,1.536-3.071,1.536-4.607,0L790.784,702.304z"/>
				</g>
			</g>
			<g transform="translate(800,800) scale(0.256) rotate(0)">
				<g id="shape_other_10_1_96_">
					<path d="M789.76,802.56c-1.706-1.706-1.706-3.413,0-5.119l7.681-7.681c1.706-1.706,3.413-1.706,5.119,0l7.681,7.681
						c1.706,1.706,1.706,3.413,0,5.119l-7.681,7.681c-1.706,1.706-3.413,1.706-5.119,0L789.76,802.56z"/>
				</g>
			</g>
			<g transform="translate(800,900) scale(0.2816) rotate(0)">
				<g id="shape_other_10_1_97_">
					<path d="M788.736,902.816c-1.878-1.878-1.878-3.755,0-5.633l8.447-8.447c1.878-1.878,3.755-1.878,5.633,0l8.447,8.447
						c1.878,1.878,1.878,3.755,0,5.633l-8.447,8.447c-1.878,1.878-3.755,1.878-5.633,0L788.736,902.816z"/>
				</g>
			</g>
			<g transform="translate(800,1000) scale(0.3072) rotate(0)">
				<g id="shape_other_10_1_98_">
					<path d="M787.712,1003.072c-2.048-2.048-2.048-4.097,0-6.145l9.216-9.216c2.048-2.048,4.097-2.048,6.145,0l9.216,9.216
						c2.048,2.048,2.048,4.097,0,6.145l-9.216,9.216c-2.048,2.048-4.097,2.048-6.145,0L787.712,1003.072z"/>
				</g>
			</g>
			<g transform="translate(900,0) scale(0.0384) rotate(0)">
				<g id="shape_other_10_1_99_">
					<path d="M898.464,0.384c-0.256-0.256-0.256-0.512,0-0.768l1.152-1.152c0.256-0.256,0.512-0.256,0.768,0l1.152,1.152
						c0.256,0.256,0.256,0.512,0,0.768l-1.152,1.152c-0.256,0.256-0.512,0.256-0.768,0L898.464,0.384z"/>
				</g>
			</g>
			<g transform="translate(900,100) scale(0.0576) rotate(0)">
				<g id="shape_other_10_1_100_">
					<path d="M897.696,100.576c-0.384-0.384-0.384-0.768,0-1.152l1.727-1.728c0.384-0.384,0.769-0.384,1.152,0l1.728,1.728
						c0.384,0.384,0.384,0.768,0,1.152l-1.728,1.728c-0.384,0.384-0.769,0.384-1.152,0L897.696,100.576z"/>
				</g>
			</g>
			<g transform="translate(900,200) scale(0.0768) rotate(0)">
				<g id="shape_other_10_1_101_">
					<path d="M896.928,200.768c-0.512-0.512-0.512-1.024,0-1.536l2.305-2.304c0.512-0.512,1.023-0.512,1.535,0l2.305,2.304
						c0.512,0.512,0.512,1.024,0,1.536l-2.305,2.304c-0.512,0.512-1.023,0.512-1.535,0L896.928,200.768z"/>
				</g>
			</g>
			<g transform="translate(900,300) scale(0.096) rotate(0)">
				<g id="shape_other_10_1_102_">
					<path d="M896.16,300.96c-0.641-0.64-0.641-1.28,0-1.92l2.88-2.88c0.64-0.64,1.28-0.64,1.92,0l2.88,2.88
						c0.641,0.64,0.641,1.28,0,1.92l-2.88,2.88c-0.64,0.64-1.28,0.64-1.92,0L896.16,300.96z"/>
				</g>
			</g>
			<g transform="translate(900,400) scale(0.1152) rotate(0)">
				<g id="shape_other_10_1_103_">
					<path d="M895.392,401.152c-0.768-0.768-0.768-1.536,0-2.305l3.456-3.456c0.769-0.768,1.536-0.768,2.305,0l3.456,3.456
						c0.768,0.768,0.768,1.536,0,2.305l-3.456,3.456c-0.768,0.768-1.536,0.768-2.305,0L895.392,401.152z"/>
				</g>
			</g>
			<g transform="translate(900,500) scale(0.1344) rotate(0)">
				<g id="shape_other_10_1_104_">
					<path d="M894.624,501.344c-0.896-0.896-0.896-1.792,0-2.688l4.032-4.032c0.895-0.896,1.792-0.896,2.688,0l4.032,4.032
						c0.896,0.896,0.896,1.792,0,2.688l-4.032,4.032c-0.896,0.897-1.792,0.897-2.688,0L894.624,501.344z"/>
				</g>
			</g>
			<g transform="translate(900,600) scale(0.1536) rotate(0)">
				<g id="shape_other_10_1_105_">
					<path d="M893.856,601.536c-1.024-1.024-1.024-2.048,0-3.072l4.607-4.608c1.024-1.024,2.048-1.024,3.072,0l4.607,4.608
						c1.024,1.024,1.024,2.048,0,3.072l-4.607,4.607c-1.024,1.024-2.048,1.024-3.072,0L893.856,601.536z"/>
				</g>
			</g>
			<g transform="translate(900,700) scale(0.1728) rotate(0)">
				<g id="shape_other_10_1_106_">
					<path d="M893.088,701.727c-1.152-1.151-1.152-2.304,0-3.455l5.184-5.185c1.152-1.152,2.305-1.152,3.457,0l5.184,5.185
						c1.152,1.151,1.152,2.304,0,3.455l-5.184,5.185c-1.152,1.152-2.305,1.152-3.457,0L893.088,701.727z"/>
				</g>
			</g>
			<g transform="translate(900,800) scale(0.192) rotate(0)">
				<g id="shape_other_10_1_107_">
					<path d="M892.32,801.92c-1.28-1.28-1.28-2.56,0-3.84l5.76-5.76c1.28-1.28,2.56-1.28,3.84,0l5.76,5.76
						c1.28,1.28,1.28,2.56,0,3.84l-5.76,5.76c-1.28,1.28-2.559,1.28-3.84,0L892.32,801.92z"/>
				</g>
			</g>
			<g transform="translate(900,900) scale(0.2112) rotate(0)">
				<g id="shape_other_10_1_108_">
					<path d="M891.552,902.112c-1.408-1.408-1.408-2.816,0-4.225l6.336-6.336c1.408-1.408,2.816-1.408,4.225,0l6.336,6.336
						c1.408,1.408,1.408,2.816,0,4.225l-6.336,6.336c-1.408,1.408-2.816,1.408-4.225,0L891.552,902.112z"/>
				</g>
			</g>
			<g transform="translate(900,1000) scale(0.2304) rotate(0)">
				<g id="shape_other_10_1_109_">
					<path d="M890.784,1002.304c-1.536-1.536-1.536-3.071,0-4.607l6.912-6.912c1.536-1.536,3.071-1.536,4.607,0l6.912,6.912
						c1.536,1.536,1.536,3.071,0,4.607l-6.912,6.912c-1.536,1.536-3.071,1.536-4.607,0L890.784,1002.304z"/>
				</g>
			</g>
			<g transform="translate(1000,0) scale(0.0256) rotate(0)">
				<g id="shape_other_10_1_110_">
					<path d="M998.976,0.256c-0.17-0.171-0.17-0.341,0-0.512l0.768-0.768c0.171-0.171,0.341-0.171,0.512,0l0.768,0.768
						c0.17,0.17,0.17,0.341,0,0.512l-0.768,0.768c-0.171,0.171-0.341,0.171-0.512,0L998.976,0.256z"/>
				</g>
			</g>
			<g transform="translate(1000,100) scale(0.0384) rotate(0)">
				<g id="shape_other_10_1_111_">
					<path d="M998.464,100.384c-0.256-0.256-0.256-0.512,0-0.768l1.152-1.152c0.256-0.256,0.512-0.256,0.768,0l1.152,1.152
						c0.256,0.256,0.256,0.512,0,0.768l-1.152,1.152c-0.256,0.256-0.512,0.256-0.768,0L998.464,100.384z"/>
				</g>
			</g>
			<g transform="translate(1000,200) scale(0.0512) rotate(0)">
				<g id="shape_other_10_1_112_">
					<path d="M997.952,200.512c-0.342-0.341-0.342-0.683,0-1.024l1.536-1.536c0.341-0.341,0.683-0.341,1.023,0l1.536,1.536
						c0.342,0.341,0.342,0.683,0,1.024l-1.536,1.536c-0.341,0.341-0.683,0.341-1.023,0L997.952,200.512z"/>
				</g>
			</g>
			<g transform="translate(1000,300) scale(0.064) rotate(0)">
				<g id="shape_other_10_1_113_">
					<path d="M997.44,300.64c-0.427-0.427-0.427-0.853,0-1.28l1.92-1.92c0.427-0.427,0.853-0.427,1.279,0l1.92,1.92
						c0.427,0.427,0.427,0.853,0,1.28l-1.92,1.92c-0.427,0.427-0.852,0.427-1.279,0L997.44,300.64z"/>
				</g>
			</g>
			<g transform="translate(1000,400) scale(0.0768) rotate(0)">
				<g id="shape_other_10_1_114_">
					<path d="M996.928,400.768c-0.512-0.512-0.512-1.023,0-1.535l2.305-2.305c0.512-0.512,1.023-0.512,1.535,0l2.305,2.305
						c0.512,0.512,0.512,1.023,0,1.535l-2.305,2.305c-0.512,0.512-1.023,0.512-1.535,0L996.928,400.768z"/>
				</g>
			</g>
			<g transform="translate(1000,500) scale(0.0896) rotate(0)">
				<g id="shape_other_10_1_115_">
					<path d="M996.416,500.897c-0.598-0.598-0.598-1.195,0-1.793l2.687-2.688c0.598-0.598,1.195-0.598,1.793,0l2.688,2.688
						c0.598,0.598,0.598,1.195,0,1.793l-2.688,2.688c-0.598,0.598-1.195,0.598-1.793,0L996.416,500.897z"/>
				</g>
			</g>
			<g transform="translate(1000,600) scale(0.1024) rotate(0)">
				<g id="shape_other_10_1_116_">
					<path d="M995.904,601.024c-0.683-0.683-0.683-1.366,0-2.049l3.071-3.071c0.683-0.683,1.366-0.683,2.049,0l3.071,3.071
						c0.683,0.683,0.683,1.366,0,2.049l-3.071,3.071c-0.683,0.683-1.366,0.683-2.049,0L995.904,601.024z"/>
				</g>
			</g>
			<g transform="translate(1000,700) scale(0.1152) rotate(0)">
				<g id="shape_other_10_1_117_">
					<path d="M995.392,701.152c-0.768-0.768-0.768-1.536,0-2.305l3.456-3.456c0.768-0.768,1.536-0.768,2.305,0l3.456,3.456
						c0.768,0.768,0.768,1.536,0,2.305l-3.456,3.456c-0.768,0.768-1.536,0.768-2.305,0L995.392,701.152z"/>
				</g>
			</g>
			<g transform="translate(1000,800) scale(0.128) rotate(0)">
				<g id="shape_other_10_1_118_">
					<path d="M994.88,801.28c-0.854-0.853-0.854-1.707,0-2.561l3.84-3.84c0.854-0.853,1.707-0.853,2.561,0l3.84,3.84
						c0.854,0.853,0.854,1.707,0,2.561l-3.84,3.84c-0.854,0.853-1.707,0.853-2.561,0L994.88,801.28z"/>
				</g>
			</g>
			<g transform="translate(1000,900) scale(0.1408) rotate(0)">
				<g id="shape_other_10_1_119_">
					<path d="M994.368,901.408c-0.938-0.938-0.938-1.878,0-2.816l4.224-4.224c0.938-0.938,1.878-0.938,2.816,0l4.224,4.224
						c0.938,0.938,0.938,1.878,0,2.816l-4.224,4.224c-0.939,0.938-1.878,0.938-2.816,0L994.368,901.408z"/>
				</g>
			</g>
			<g transform="scale(1) ">
				<g id="shape_other_10_1_120_">
					<path d="M993.856,1001.536c-1.024-1.024-1.024-2.048,0-3.072l4.607-4.608c1.024-1.024,2.048-1.024,3.072,0l4.607,4.608
						c1.024,1.024,1.024,2.048,0,3.072l-4.607,4.608c-1.024,1.024-2.048,1.024-3.072,0L993.856,1001.536z"/>
				</g>
			</g>
		</g>
	</g>
</g>
</svg>
